<svg width="919" height="918" viewBox="0 0 919 918" fill="none" xmlns="http://www.w3.org/2000/svg">
<path d="M688.835 688.004C815.493 561.346 815.493 355.993 688.835 229.335C562.177 102.677 356.823 102.677 230.165 229.335C103.507 355.993 103.507 561.346 230.165 688.004C356.823 814.662 562.177 814.662 688.835 688.004Z" fill="url(#paint0_linear_804_357)"/>
<mask id="mask0_804_357" style="mask-type:alpha" maskUnits="userSpaceOnUse" x="135" y="134" width="649" height="649">
<path d="M688.835 688.004C815.493 561.346 815.493 355.993 688.835 229.335C562.177 102.677 356.823 102.677 230.165 229.335C103.507 355.993 103.507 561.346 230.165 688.004C356.823 814.662 562.177 814.662 688.835 688.004Z" fill="black"/>
</mask>
<g mask="url(#mask0_804_357)">
<path d="M105.787 872.553C105.885 785.795 105.982 594.825 106.087 508.066L143.999 532.374H218.461L343.355 599L403.439 631.054L467.574 665.264L515.508 641.729L575.592 612.236L700.486 550.927H774.948L812.861 528.561C812.958 608.395 813.056 792.441 813.16 872.275L105.787 872.553Z" fill="url(#paint1_linear_804_357)"/>
<path d="M-57.1695 851C-57.0271 724.131 -56.8846 444.869 -56.7321 318L-1.31307 353.546H107.531L290.095 450.975L377.923 497.848L471.671 547.875L541.738 513.458L629.566 470.331L812.13 380.677H920.974L976.393 347.97C976.535 464.713 976.678 733.849 976.831 850.593L-57.1695 851Z" fill="url(#paint2_linear_804_357)"/>
<path d="M366.209 627.879H364.059V643.753H366.209V627.879Z" fill="#006CA7"/>
<path d="M341.777 627.879H339.627V643.753H341.777V627.879Z" fill="#006CA7"/>
<path d="M363.142 642.779H367.129C367.944 642.779 368.605 643.44 368.605 644.254V644.546H361.66V644.254C361.66 643.44 362.321 642.779 363.135 642.779H363.142Z" fill="#006CA7"/>
<path d="M338.706 642.779H342.693C343.508 642.779 344.169 643.44 344.169 644.254V644.546H337.224V644.254C337.224 643.44 337.885 642.779 338.699 642.779H338.706Z" fill="#006CA7"/>
<path d="M372.842 629.939H335.325L328.158 606H365.674L372.842 629.939Z" fill="#4091BD"/>
<path d="M366.774 616.871H357.142L354.547 608.207H364.178L366.774 616.871Z" fill="#7FB5D3"/>
<path d="M370.023 627.733H360.391L357.803 619.069H367.434L370.023 627.733Z" fill="#7FB5D3"/>
<path d="M354.984 616.871H345.352L342.756 608.207H352.388L354.984 616.871Z" fill="#7FB5D3"/>
<path d="M358.242 627.733H348.611L346.015 619.069H355.646L358.242 627.733Z" fill="#7FB5D3"/>
<path d="M343.195 616.871H333.564L330.975 608.207H340.6L343.195 616.871Z" fill="#7FB5D3"/>
<path d="M346.453 627.733H336.822L334.226 619.069H343.858L346.453 627.733Z" fill="#7FB5D3"/>
<path d="M372.841 629.939L371.7 632.062H334.183L335.325 629.939H372.841Z" fill="#006CA7"/>
<path d="M335.324 629.939L334.182 632.062L327.015 608.129L328.156 606L335.324 629.939Z" fill="#006CA7"/>
<path d="M324.629 627.879H322.479V643.725H324.629V627.879Z" fill="#006CA7"/>
<path d="M300.223 627.879H298.073V643.725H300.223V627.879Z" fill="#006CA7"/>
<path d="M321.56 642.75H325.541C326.355 642.75 327.016 643.412 327.016 644.226V644.518H320.085V644.226C320.085 643.412 320.746 642.75 321.56 642.75Z" fill="#006CA7"/>
<path d="M297.162 642.75H301.143C301.957 642.75 302.618 643.412 302.618 644.226V644.518H295.687V644.226C295.687 643.412 296.348 642.75 297.162 642.75Z" fill="#006CA7"/>
<path d="M331.24 629.925H293.787L286.626 606.028H324.087L331.24 629.925Z" fill="#4091BD"/>
<path d="M325.178 616.877H315.568L312.979 608.227H322.589L325.178 616.877Z" fill="#7FB5D3"/>
<path d="M328.428 627.726H318.818L316.222 619.076H325.839L328.428 627.726Z" fill="#7FB5D3"/>
<path d="M313.41 616.877H303.799L301.211 608.227H310.821L313.41 616.877Z" fill="#7FB5D3"/>
<path d="M316.66 627.726H307.042L304.454 619.076H314.071L316.66 627.726Z" fill="#7FB5D3"/>
<path d="M301.642 616.877H292.032L289.436 608.227H299.053L301.642 616.877Z" fill="#7FB5D3"/>
<path d="M304.893 627.726H295.276L292.687 619.076H302.304L304.893 627.726Z" fill="#7FB5D3"/>
<path d="M331.241 629.925L330.107 632.055H292.647L293.788 629.925H331.241Z" fill="#006CA7"/>
<path d="M293.787 629.925L292.646 632.055L285.492 608.157L286.627 606.028L293.787 629.925Z" fill="#006CA7"/>
<path d="M282.826 627.879H280.676V643.725H282.826V627.879Z" fill="#006CA7"/>
<path d="M258.428 627.879H256.277V643.725H258.428V627.879Z" fill="#006CA7"/>
<path d="M279.757 642.75H283.738C284.552 642.75 285.213 643.412 285.213 644.226V644.518H278.282V644.226C278.282 643.412 278.943 642.75 279.757 642.75Z" fill="#006CA7"/>
<path d="M255.359 642.75H259.339C260.154 642.75 260.815 643.412 260.815 644.226V644.518H253.883V644.226C253.883 643.412 254.545 642.75 255.359 642.75Z" fill="#006CA7"/>
<path d="M289.438 629.925H251.984L244.831 606.028H282.284L289.438 629.925Z" fill="#4091BD"/>
<path d="M283.383 616.877H273.765L271.177 608.227H280.794L283.383 616.877Z" fill="#7FB5D3"/>
<path d="M286.627 627.726H277.016L274.427 619.076H284.038L286.627 627.726Z" fill="#7FB5D3"/>
<path d="M271.616 616.877H261.999L259.41 608.227H269.02L271.616 616.877Z" fill="#7FB5D3"/>
<path d="M274.86 627.726H265.249L262.661 619.076H272.271L274.86 627.726Z" fill="#7FB5D3"/>
<path d="M259.848 616.877H250.231L247.642 608.227H257.252L259.848 616.877Z" fill="#7FB5D3"/>
<path d="M263.092 627.726H253.481L250.893 619.076H260.503L263.092 627.726Z" fill="#7FB5D3"/>
<path d="M289.437 629.925L288.302 632.055H250.842L251.983 629.925H289.437Z" fill="#006CA7"/>
<path d="M252.126 629.897L250.984 632.027L243.831 608.13L244.972 606L252.126 629.897Z" fill="#006CA7"/>
<path d="M586.212 527.309H585.078L583.901 590.441H586.212H588.515L587.339 527.309H586.212Z" fill="#51B89F"/>
<path d="M588.674 574.223H583.74C583.107 574.223 582.592 574.919 582.592 575.781C582.592 576.644 583.107 577.34 583.74 577.34H588.674C589.307 577.34 589.822 576.644 589.822 575.781C589.822 574.919 589.307 574.223 588.674 574.223Z" fill="#51B89F"/>
<path d="M581.271 575.454C580.541 575.475 579.831 575.698 579.219 576.094L564.994 585.427C564.716 585.607 564.932 586.039 565.245 585.921L579.942 580.555C580.436 580.374 580.861 580.047 581.16 579.609C581.16 579.609 583.526 576.561 583.589 576.401L583.422 575.392L581.264 575.447L581.271 575.454Z" fill="#51B89F"/>
<path d="M589.802 576.839C589.399 576.505 588.898 576.296 588.376 576.255C588.376 576.255 584.548 575.733 584.381 575.754L583.588 576.401L584.715 578.238C585.098 578.857 585.648 579.365 586.295 579.692L601.494 587.34C601.793 587.486 602.05 587.09 601.8 586.874L589.802 576.825V576.839Z" fill="#51B89F"/>
<path d="M584.911 554.786C584.89 554.452 584.417 554.425 584.354 554.752L581.654 570.166C581.563 570.681 581.633 571.217 581.863 571.69C581.863 571.69 583.324 575.267 583.428 575.399L584.389 575.761L585.419 573.868C585.767 573.228 585.927 572.497 585.885 571.773L584.911 554.786Z" fill="#51B89F"/>
<path d="M583.74 574.223C583.107 574.223 582.592 574.919 582.592 575.781C582.592 576.644 583.107 577.34 583.74 577.34C584.374 577.34 584.888 576.644 584.888 575.781C584.888 574.919 584.374 574.223 583.74 574.223Z" fill="#51B89F"/>
<path d="M583.742 575.19C583.498 575.19 583.303 575.454 583.303 575.781C583.303 576.109 583.498 576.373 583.742 576.373C583.985 576.373 584.18 576.109 584.18 575.781C584.18 575.454 583.985 575.19 583.742 575.19Z" fill="#51B89F"/>
<path d="M583.366 574.563H583.073C582.691 574.563 581.027 575.148 581.034 575.781C581.034 576.366 582.732 576.999 583.073 576.999H583.366C583.811 576.999 584.18 576.456 584.18 575.781C584.18 575.106 583.818 574.563 583.366 574.563Z" fill="#51B89F"/>
<path fill-rule="evenodd" clip-rule="evenodd" d="M477.345 614.23C480.539 614.23 483.134 622.915 483.134 629.568C483.134 636.221 480.539 638.343 477.345 638.343C474.15 638.343 471.555 636.221 471.555 629.568C471.555 622.915 474.15 614.23 477.345 614.23Z" fill="#006CA7"/>
<path fill-rule="evenodd" clip-rule="evenodd" d="M433.657 623.812C435.584 623.812 437.143 629.046 437.143 633.054C437.143 637.062 435.577 638.343 433.657 638.343C431.736 638.343 430.17 637.062 430.17 633.054C430.17 629.046 431.736 623.812 433.657 623.812Z" fill="#006CA7"/>
<path fill-rule="evenodd" clip-rule="evenodd" d="M700.179 618.663C702.789 618.663 704.904 625.747 704.904 631.182C704.904 636.61 702.789 638.343 700.179 638.343C697.569 638.343 695.454 636.61 695.454 631.182C695.454 625.754 697.569 618.663 700.179 618.663Z" fill="#006CA7"/>
<path fill-rule="evenodd" clip-rule="evenodd" d="M628.801 593.889C630.729 593.889 632.288 599.122 632.288 603.13C632.288 607.139 630.722 608.419 628.801 608.419C626.874 608.419 625.315 607.139 625.315 603.13C625.315 599.122 626.88 593.889 628.801 593.889Z" fill="#006CA7"/>
<path fill-rule="evenodd" clip-rule="evenodd" d="M783.007 519.706C784.935 519.706 786.494 524.939 786.494 528.947C786.494 532.956 784.935 534.236 783.007 534.236C781.08 534.236 779.521 532.956 779.521 528.947C779.521 524.939 781.08 519.706 783.007 519.706Z" fill="#006CA7"/>
<path fill-rule="evenodd" clip-rule="evenodd" d="M675.44 507.896C677.368 507.896 678.927 513.129 678.927 517.137C678.927 521.146 677.361 522.426 675.44 522.426C673.52 522.426 671.954 521.146 671.954 517.137C671.954 513.129 673.52 507.896 675.44 507.896Z" fill="#006CA7"/>
<path fill-rule="evenodd" clip-rule="evenodd" d="M732.97 559.845C734.898 559.845 736.457 565.078 736.457 569.086C736.457 573.095 734.891 574.375 732.97 574.375C731.05 574.375 729.484 573.095 729.484 569.086C729.484 565.078 731.043 559.845 732.97 559.845Z" fill="#006CA7"/>
<path d="M678.398 575.309H677.27L676.094 638.441H678.398H680.708L679.532 575.309H678.398Z" fill="#006CA7"/>
<path d="M680.868 574.223H675.934C675.301 574.223 674.786 574.919 674.786 575.781C674.786 576.644 675.301 577.34 675.934 577.34H680.868C681.502 577.34 682.017 576.644 682.017 575.781C682.017 574.919 681.502 574.223 680.868 574.223Z" fill="#006CA7"/>
<path d="M673.464 575.454C672.733 575.475 672.024 575.698 671.411 576.094L657.187 585.427C656.909 585.607 657.124 586.039 657.438 585.921L672.135 580.555C672.629 580.374 673.054 580.047 673.353 579.609C673.353 579.609 675.719 576.561 675.782 576.401L675.615 575.392L673.457 575.447L673.464 575.454Z" fill="#006CA7"/>
<path d="M681.997 576.839C681.593 576.505 681.092 576.296 680.57 576.255C680.57 576.255 676.743 575.733 676.576 575.754L675.782 576.401L676.91 578.238C677.292 578.857 677.842 579.365 678.489 579.692L693.688 587.34C693.987 587.486 694.244 587.09 693.994 586.874L681.997 576.825V576.839Z" fill="#006CA7"/>
<path d="M677.097 554.786C677.076 554.452 676.603 554.425 676.54 554.752L673.84 570.166C673.75 570.681 673.819 571.217 674.049 571.69C674.049 571.69 675.51 575.267 675.615 575.399L676.575 575.761L677.605 573.868C677.953 573.228 678.113 572.497 678.071 571.773L677.097 554.786Z" fill="#006CA7"/>
<path d="M675.934 574.223C675.301 574.223 674.786 574.919 674.786 575.781C674.786 576.644 675.301 577.34 675.934 577.34C676.568 577.34 677.083 576.644 677.083 575.781C677.083 574.919 676.568 574.223 675.934 574.223Z" fill="#006CA7"/>
<path d="M675.935 575.19C675.691 575.19 675.496 575.454 675.496 575.781C675.496 576.109 675.691 576.373 675.935 576.373C676.178 576.373 676.373 576.109 676.373 575.781C676.373 575.454 676.178 575.19 675.935 575.19Z" fill="#006CA7"/>
<path d="M675.553 574.563H675.261C674.878 574.563 673.215 575.148 673.222 575.781C673.222 576.366 674.92 576.999 675.261 576.999H675.553C675.998 576.999 676.367 576.456 676.367 575.781C676.367 575.106 676.005 574.563 675.553 574.563Z" fill="#006CA7"/>
<path d="M736.772 459.293H735.645L734.461 522.426H736.772H739.082L737.906 459.293H736.772Z" fill="#006CA7"/>
<path d="M739.239 458.216H734.306C733.672 458.216 733.157 458.912 733.157 459.775C733.157 460.638 733.672 461.333 734.306 461.333H739.239C739.873 461.333 740.388 460.638 740.388 459.775C740.388 458.912 739.873 458.216 739.239 458.216Z" fill="#006CA7"/>
<path d="M731.837 459.447C731.106 459.468 730.396 459.691 729.784 460.088L715.559 469.427C715.281 469.607 715.497 470.039 715.81 469.921L730.507 464.555C731.002 464.374 731.426 464.047 731.725 463.609C731.725 463.609 734.091 460.561 734.154 460.401L733.987 459.392L731.83 459.447H731.837Z" fill="#006CA7"/>
<path d="M740.368 460.832C739.964 460.498 739.463 460.289 738.941 460.247C738.941 460.247 735.114 459.725 734.947 459.746L734.153 460.393L735.281 462.231C735.663 462.85 736.213 463.358 736.86 463.685L752.059 471.333C752.358 471.479 752.616 471.082 752.365 470.867L740.368 460.818V460.832Z" fill="#006CA7"/>
<path d="M735.469 438.772C735.449 438.438 734.975 438.41 734.913 438.737L732.213 454.151C732.122 454.666 732.192 455.202 732.421 455.675C732.421 455.675 733.883 459.252 733.987 459.384L734.948 459.746L735.977 457.853C736.325 457.213 736.485 456.483 736.444 455.759L735.469 438.772Z" fill="#006CA7"/>
<path d="M734.3 458.216C733.667 458.216 733.152 458.912 733.152 459.775C733.152 460.638 733.667 461.333 734.3 461.333C734.934 461.333 735.449 460.638 735.449 459.775C735.449 458.912 734.934 458.216 734.3 458.216Z" fill="#006CA7"/>
<path d="M734.3 459.182C734.057 459.182 733.862 459.447 733.862 459.774C733.862 460.101 734.057 460.365 734.3 460.365C734.544 460.365 734.739 460.101 734.739 459.774C734.739 459.447 734.544 459.182 734.3 459.182Z" fill="#006CA7"/>
<path d="M733.924 458.55H733.632C733.249 458.55 731.586 459.134 731.593 459.768C731.593 460.352 733.291 460.985 733.632 460.985H733.924C734.37 460.985 734.739 460.443 734.739 459.768C734.739 459.093 734.377 458.55 733.924 458.55Z" fill="#006CA7"/>
<path d="M650.451 468.883H649.317L648.141 532.016H650.451H652.762L651.579 468.883H650.451Z" fill="#006CA7"/>
<path d="M652.921 467.805H647.987C647.354 467.805 646.839 468.501 646.839 469.364C646.839 470.226 647.354 470.922 647.987 470.922H652.921C653.555 470.922 654.07 470.226 654.07 469.364C654.07 468.501 653.555 467.805 652.921 467.805Z" fill="#006CA7"/>
<path d="M645.51 469.037C644.779 469.058 644.069 469.281 643.457 469.677L629.232 479.016C628.954 479.197 629.17 479.629 629.483 479.51L644.18 474.145C644.674 473.964 645.099 473.637 645.398 473.199C645.398 473.199 647.764 470.151 647.827 469.99L647.66 468.981L645.503 469.037H645.51Z" fill="#006CA7"/>
<path d="M654.048 470.422C653.645 470.088 653.144 469.879 652.622 469.837C652.622 469.837 648.794 469.315 648.627 469.336L647.834 469.983L648.961 471.82C649.344 472.44 649.894 472.948 650.541 473.275L665.74 480.923C666.039 481.069 666.296 480.672 666.046 480.457L654.048 470.408V470.422Z" fill="#006CA7"/>
<path d="M649.149 448.361C649.128 448.027 648.655 447.999 648.592 448.326L645.892 463.741C645.802 464.256 645.871 464.791 646.101 465.265C646.101 465.265 647.562 468.842 647.667 468.974L648.627 469.336L649.657 467.443C650.005 466.803 650.165 466.072 650.123 465.348L649.149 448.361Z" fill="#006CA7"/>
<path d="M647.98 467.805C647.346 467.805 646.831 468.501 646.831 469.364C646.831 470.226 647.346 470.922 647.98 470.922C648.613 470.922 649.128 470.226 649.128 469.364C649.128 468.501 648.613 467.805 647.98 467.805Z" fill="#006CA7"/>
<path d="M647.981 468.772C647.738 468.772 647.543 469.037 647.543 469.364C647.543 469.691 647.738 469.956 647.981 469.956C648.225 469.956 648.42 469.691 648.42 469.364C648.42 469.037 648.225 468.772 647.981 468.772Z" fill="#006CA7"/>
<path d="M647.605 468.146H647.313C646.93 468.146 645.267 468.731 645.274 469.364C645.274 469.948 646.972 470.582 647.313 470.582H647.605C648.05 470.582 648.419 470.039 648.419 469.364C648.419 468.689 648.057 468.146 647.605 468.146Z" fill="#006CA7"/>
<path d="M770.593 575.309H769.458L768.282 638.441H770.593H772.903L771.727 575.309H770.593Z" fill="#006CA7"/>
<path d="M773.061 574.223H768.127C767.494 574.223 766.979 574.919 766.979 575.781C766.979 576.644 767.494 577.34 768.127 577.34H773.061C773.695 577.34 774.21 576.644 774.21 575.781C774.21 574.919 773.695 574.223 773.061 574.223Z" fill="#006CA7"/>
<path d="M765.657 575.454C764.926 575.475 764.217 575.698 763.604 576.094L749.38 585.427C749.102 585.607 749.317 586.039 749.63 585.921L764.328 580.555C764.822 580.374 765.247 580.047 765.546 579.609C765.546 579.609 767.912 576.561 767.975 576.401L767.808 575.392L765.65 575.447L765.657 575.454Z" fill="#006CA7"/>
<path d="M774.19 576.839C773.786 576.505 773.285 576.296 772.763 576.255C772.763 576.255 768.936 575.733 768.769 575.754L767.975 576.401L769.103 578.238C769.485 578.857 770.035 579.365 770.682 579.692L785.881 587.34C786.18 587.486 786.438 587.09 786.187 586.874L774.19 576.825V576.839Z" fill="#006CA7"/>
<path d="M769.291 554.786C769.27 554.452 768.797 554.425 768.734 554.752L766.034 570.166C765.944 570.681 766.014 571.217 766.243 571.69C766.243 571.69 767.705 575.267 767.809 575.399L768.769 575.761L769.799 573.868C770.147 573.228 770.307 572.497 770.266 571.773L769.291 554.786Z" fill="#006CA7"/>
<path d="M768.121 574.223C767.488 574.223 766.973 574.919 766.973 575.781C766.973 576.644 767.488 577.34 768.121 577.34C768.754 577.34 769.269 576.644 769.269 575.781C769.269 574.919 768.754 574.223 768.121 574.223Z" fill="#006CA7"/>
<path d="M768.122 575.19C767.879 575.19 767.684 575.454 767.684 575.781C767.684 576.109 767.879 576.373 768.122 576.373C768.366 576.373 768.561 576.109 768.561 575.781C768.561 575.454 768.366 575.19 768.122 575.19Z" fill="#006CA7"/>
<path d="M767.745 574.563H767.453C767.07 574.563 765.407 575.148 765.414 575.781C765.414 576.366 767.112 576.999 767.453 576.999H767.745C768.19 576.999 768.559 576.456 768.559 575.781C768.559 575.106 768.197 574.563 767.745 574.563Z" fill="#006CA7"/>
<path d="M331.538 538.802H332.672L333.848 601.935H331.538H329.227L330.403 538.802H331.538Z" fill="#006CA7"/>
<path d="M328.979 537H333.913C334.546 537 335.061 537.696 335.061 538.559C335.061 539.422 334.546 540.118 333.913 540.118H328.979C328.345 540.118 327.831 539.422 327.831 538.559C327.831 537.696 328.345 537 328.979 537Z" fill="#006CA7"/>
<path d="M336.473 538.956C337.204 538.977 337.913 539.199 338.526 539.596L352.75 548.928C353.029 549.109 352.813 549.54 352.5 549.422L337.802 544.057C337.308 543.876 336.884 543.549 336.584 543.11C336.584 543.11 334.218 540.062 334.156 539.902L334.323 538.893L336.48 538.949L336.473 538.956Z" fill="#006CA7"/>
<path d="M327.941 540.34C328.345 540.006 328.846 539.797 329.368 539.756C329.368 539.756 333.195 539.234 333.363 539.255L334.156 539.902L333.028 541.739C332.646 542.358 332.096 542.866 331.449 543.193L316.25 550.841C315.951 550.987 315.694 550.591 315.944 550.375L327.941 540.326V540.34Z" fill="#006CA7"/>
<path d="M332.841 518.28C332.862 517.946 333.335 517.918 333.398 518.245L336.098 533.659C336.189 534.174 336.119 534.71 335.889 535.183C335.889 535.183 334.428 538.76 334.323 538.892L333.363 539.254L332.333 537.361C331.985 536.721 331.825 535.99 331.867 535.267L332.841 518.28Z" fill="#006CA7"/>
<path d="M334.01 537.724C334.643 537.724 335.158 538.42 335.158 539.282C335.158 540.145 334.643 540.841 334.01 540.841C333.377 540.841 332.862 540.145 332.862 539.282C332.862 538.42 333.377 537.724 334.01 537.724Z" fill="#006CA7"/>
<path d="M334.009 538.691C334.252 538.691 334.447 538.955 334.447 539.282C334.447 539.609 334.252 539.874 334.009 539.874C333.765 539.874 333.57 539.609 333.57 539.282C333.57 538.955 333.765 538.691 334.009 538.691Z" fill="#006CA7"/>
<path d="M334.385 538.058H334.677C335.06 538.058 336.723 538.642 336.716 539.275C336.716 539.86 335.018 540.493 334.677 540.493H334.385C333.939 540.493 333.57 539.95 333.57 539.275C333.57 538.6 333.932 538.058 334.385 538.058Z" fill="#006CA7"/>
<path d="M297.44 445.022H298.568L299.744 508.155H297.44H295.13L296.306 445.022H297.44Z" fill="#006CA7"/>
<path d="M294.968 443.937H299.902C300.536 443.937 301.051 444.633 301.051 445.496C301.051 446.359 300.536 447.055 299.902 447.055H294.968C294.335 447.055 293.82 446.359 293.82 445.496C293.82 444.633 294.335 443.937 294.968 443.937Z" fill="#006CA7"/>
<path d="M302.373 445.168C303.103 445.189 303.813 445.412 304.426 445.808L318.65 455.14C318.928 455.321 318.713 455.753 318.399 455.635L303.702 450.269C303.208 450.088 302.783 449.761 302.484 449.323C302.484 449.323 300.118 446.275 300.055 446.115L300.222 445.105L302.38 445.161L302.373 445.168Z" fill="#006CA7"/>
<path d="M293.84 446.553C294.244 446.219 294.745 446.01 295.267 445.968C295.267 445.968 299.094 445.447 299.261 445.467L300.054 446.115L298.927 447.952C298.544 448.571 297.995 449.079 297.347 449.406L282.149 457.054C281.85 457.2 281.592 456.804 281.843 456.588L293.84 446.539V446.553Z" fill="#006CA7"/>
<path d="M298.735 424.5C298.756 424.166 299.229 424.138 299.291 424.465L301.991 439.88C302.082 440.395 302.012 440.931 301.783 441.404C301.783 441.404 300.321 444.981 300.217 445.113L299.257 445.475L298.227 443.582C297.879 442.942 297.719 442.211 297.76 441.487L298.735 424.5Z" fill="#006CA7"/>
<path d="M299.903 443.937C300.537 443.937 301.052 444.633 301.052 445.496C301.052 446.359 300.537 447.055 299.903 447.055C299.27 447.055 298.755 446.359 298.755 445.496C298.755 444.633 299.27 443.937 299.903 443.937Z" fill="#006CA7"/>
<path d="M299.902 444.904C300.146 444.904 300.341 445.169 300.341 445.496C300.341 445.823 300.146 446.087 299.902 446.087C299.659 446.087 299.464 445.823 299.464 445.496C299.464 445.169 299.659 444.904 299.902 444.904Z" fill="#006CA7"/>
<path d="M300.278 444.278H300.57C300.953 444.278 302.616 444.862 302.609 445.496C302.609 446.08 300.911 446.713 300.57 446.713H300.278C299.833 446.713 299.464 446.171 299.464 445.496C299.464 444.821 299.826 444.278 300.278 444.278Z" fill="#006CA7"/>
<path d="M239.346 538.802H240.48L241.656 601.935H239.346H237.042L238.218 538.802H239.346Z" fill="#006CA7"/>
<path d="M236.882 537.724H241.816C242.45 537.724 242.965 538.42 242.965 539.282C242.965 540.145 242.45 540.841 241.816 540.841H236.882C236.249 540.841 235.734 540.145 235.734 539.282C235.734 538.42 236.249 537.724 236.882 537.724Z" fill="#006CA7"/>
<path d="M244.285 538.956C245.016 538.977 245.726 539.199 246.338 539.596L260.563 548.928C260.841 549.109 260.625 549.54 260.312 549.422L245.615 544.057C245.12 543.876 244.696 543.549 244.397 543.11C244.397 543.11 242.031 540.062 241.968 539.902L242.135 538.893L244.292 538.949L244.285 538.956Z" fill="#006CA7"/>
<path d="M235.754 540.34C236.158 540.006 236.659 539.797 237.181 539.756C237.181 539.756 241.008 539.234 241.175 539.255L241.968 539.902L240.841 541.739C240.458 542.358 239.908 542.866 239.261 543.193L224.063 550.841C223.764 550.987 223.506 550.591 223.757 550.375L235.754 540.326V540.34Z" fill="#006CA7"/>
<path d="M240.647 518.28C240.668 517.946 241.141 517.918 241.204 518.245L243.904 533.659C243.994 534.174 243.925 534.71 243.695 535.183C243.695 535.183 242.234 538.76 242.129 538.892L241.169 539.254L240.139 537.361C239.791 536.721 239.631 535.99 239.673 535.267L240.647 518.28Z" fill="#006CA7"/>
<path d="M241.979 538C242.612 538 243.127 538.696 243.127 539.559C243.127 540.422 242.612 541.118 241.979 541.118C241.345 541.118 240.831 540.422 240.831 539.559C240.831 538.696 241.345 538 241.979 538Z" fill="#006CA7"/>
<path d="M242.355 538.334H242.647C243.03 538.334 244.693 538.919 244.686 539.552C244.686 540.136 242.988 540.77 242.647 540.77H242.355C241.909 540.77 241.541 540.227 241.541 539.552C241.541 538.877 241.902 538.334 242.355 538.334Z" fill="#006CA7"/>
<path d="M180.973 422.789H182.108L183.284 485.921H180.973H178.67L179.846 422.789H180.973Z" fill="#006CA7"/>
<path d="M178.509 421.709H183.443C184.076 421.709 184.591 422.405 184.591 423.268C184.591 424.131 184.076 424.827 183.443 424.827H178.509C177.875 424.827 177.361 424.131 177.361 423.268C177.361 422.405 177.875 421.709 178.509 421.709Z" fill="#006CA7"/>
<path d="M185.914 460.609C186.645 460.63 187.355 460.853 187.967 461.25L202.192 470.589C202.47 470.77 202.254 471.201 201.941 471.083L187.244 465.717C186.749 465.536 186.325 465.209 186.026 464.771C186.026 464.771 183.66 461.723 183.597 461.563L183.764 460.554L185.921 460.609H185.914Z" fill="#006CA7"/>
<path d="M177.382 424.326C177.785 423.992 178.286 423.784 178.808 423.742C178.808 423.742 182.636 423.22 182.803 423.241L183.596 423.888L182.469 425.725C182.086 426.345 181.536 426.853 180.889 427.18L165.69 434.828C165.391 434.974 165.134 434.577 165.384 434.361L177.382 424.313V424.326Z" fill="#006CA7"/>
<path d="M182.274 402.266C182.294 401.932 182.768 401.904 182.83 402.231L185.53 417.645C185.621 418.16 185.551 418.696 185.322 419.169C185.322 419.169 183.86 422.746 183.756 422.879L182.796 423.24L181.766 421.348C181.418 420.707 181.258 419.977 181.299 419.253L182.274 402.266Z" fill="#006CA7"/>
<path d="M183.442 459.377C184.076 459.377 184.591 460.073 184.591 460.936C184.591 461.799 184.076 462.495 183.442 462.495C182.809 462.495 182.294 461.799 182.294 460.936C182.294 460.073 182.809 459.377 183.442 459.377Z" fill="#006CA7"/>
<path d="M183.444 460.344C183.687 460.344 183.882 460.609 183.882 460.936C183.882 461.263 183.687 461.527 183.444 461.527C183.2 461.527 183.005 461.263 183.005 460.936C183.005 460.609 183.2 460.344 183.444 460.344Z" fill="#006CA7"/>
<path d="M183.82 422.05H184.112C184.495 422.05 186.158 422.635 186.151 423.268C186.151 423.853 184.453 424.486 184.112 424.486H183.82C183.374 424.486 183.005 423.943 183.005 423.268C183.005 422.593 183.367 422.05 183.82 422.05Z" fill="#006CA7"/>
<path d="M147.159 576.47H148.286L149.462 639.603H147.159H144.848L146.024 576.47H147.159Z" fill="#006CA7"/>
<path d="M144.688 575.392H149.622C150.256 575.392 150.77 576.087 150.77 576.95C150.77 577.813 150.256 578.509 149.622 578.509H144.688C144.055 578.509 143.54 577.813 143.54 576.95C143.54 576.087 144.055 575.392 144.688 575.392Z" fill="#006CA7"/>
<path d="M152.094 576.624C152.825 576.645 153.534 576.867 154.147 577.264L168.371 586.596C168.649 586.777 168.434 587.208 168.121 587.09L153.423 581.725C152.929 581.544 152.504 581.217 152.205 580.778C152.205 580.778 149.839 577.73 149.776 577.57L149.943 576.561L152.101 576.617L152.094 576.624Z" fill="#006CA7"/>
<path d="M143.561 578.008C143.965 577.674 144.466 577.465 144.988 577.424C144.988 577.424 148.815 576.902 148.982 576.922L149.776 577.57L148.648 579.407C148.265 580.026 147.716 580.534 147.068 580.861L131.87 588.509C131.571 588.655 131.313 588.259 131.564 588.043L143.561 577.994V578.008Z" fill="#006CA7"/>
<path d="M148.453 555.948C148.474 555.613 148.947 555.586 149.01 555.913L151.71 571.327C151.8 571.842 151.731 572.378 151.501 572.851C151.501 572.851 150.04 576.428 149.935 576.56L148.975 576.922L147.945 575.029C147.597 574.389 147.437 573.658 147.479 572.935L148.453 555.948Z" fill="#006CA7"/>
<path d="M149.622 575.392C150.255 575.392 150.77 576.087 150.77 576.95C150.77 577.813 150.255 578.509 149.622 578.509C148.989 578.509 148.474 577.813 148.474 576.95C148.474 576.087 148.989 575.392 149.622 575.392Z" fill="#006CA7"/>
<path d="M149.623 576.359C149.867 576.359 150.062 576.623 150.062 576.95C150.062 577.277 149.867 577.542 149.623 577.542C149.38 577.542 149.185 577.277 149.185 576.95C149.185 576.623 149.38 576.359 149.623 576.359Z" fill="#006CA7"/>
<path d="M149.999 575.726H150.291C150.674 575.726 152.337 576.31 152.33 576.943C152.33 577.528 150.632 578.161 150.291 578.161H149.999C149.554 578.161 149.185 577.618 149.185 576.943C149.185 576.268 149.547 575.726 149.999 575.726Z" fill="#006CA7"/>
<path fill-rule="evenodd" clip-rule="evenodd" d="M440.398 615.392C437.204 615.392 434.608 624.077 434.608 630.73C434.608 637.383 437.204 639.505 440.398 639.505C443.592 639.505 446.188 637.383 446.188 630.73C446.188 624.077 443.592 615.392 440.398 615.392Z" fill="#006CA7"/>
<path fill-rule="evenodd" clip-rule="evenodd" d="M484.086 624.975C482.159 624.975 480.6 630.208 480.6 634.217C480.6 638.225 482.166 639.506 484.086 639.506C486.014 639.506 487.573 638.225 487.573 634.217C487.573 630.208 486.007 624.975 484.086 624.975Z" fill="#006CA7"/>
<path fill-rule="evenodd" clip-rule="evenodd" d="M217.563 619.832C214.953 619.832 212.838 626.916 212.838 632.351C212.838 637.786 214.953 639.512 217.563 639.512C220.173 639.512 222.288 637.779 222.288 632.351C222.288 626.923 220.173 619.832 217.563 619.832Z" fill="#006CA7"/>
<path fill-rule="evenodd" clip-rule="evenodd" d="M134.737 520.874C132.809 520.874 131.251 526.107 131.251 530.116C131.251 534.124 132.809 535.405 134.737 535.405C136.665 535.405 138.223 534.124 138.223 530.116C138.223 526.107 136.665 520.874 134.737 520.874Z" fill="#006CA7"/>
<path fill-rule="evenodd" clip-rule="evenodd" d="M212.317 509C210.389 509 208.831 514.233 208.831 518.242C208.831 522.25 210.396 523.53 212.317 523.53C214.238 523.53 215.803 522.25 215.803 518.242C215.803 514.233 214.238 509 212.317 509Z" fill="#006CA7"/>
<path fill-rule="evenodd" clip-rule="evenodd" d="M184.779 561.007C182.852 561.007 181.293 566.241 181.293 570.249C181.293 574.257 182.859 575.538 184.779 575.538C186.707 575.538 188.266 574.257 188.266 570.249C188.266 566.241 186.707 561.007 184.779 561.007Z" fill="#006CA7"/>
<path d="M751.621 748.303V941.145H185.155V748.303H196.213C203.84 733.07 211.46 717.809 219.073 702.575C225.733 689.263 239.331 680.849 254.209 680.849H280.041L568.459 681.037V680.849H676.498C691.377 680.849 704.981 689.263 711.634 702.575C719.254 717.809 726.868 733.07 734.495 748.303H751.614H751.621Z" fill="url(#paint3_linear_804_357)"/>
<path d="M473.711 680.752H470.754L478.158 669.047H481.074L473.711 680.752Z" fill="#006CA7"/>
<path d="M483.232 680.752H486.189L481.095 669.047H478.186L483.232 680.752Z" fill="#006CA7"/>
<path d="M486.538 680.752H483.58L490.79 669.047H493.706L486.538 680.752Z" fill="#006CA7"/>
<path d="M496.057 680.752H499.014L493.732 669.047H490.817L496.057 680.752Z" fill="#006CA7"/>
<path d="M499.363 680.752H496.405L503.427 669.047H506.336L499.363 680.752Z" fill="#006CA7"/>
<path d="M508.883 680.752H511.84L506.364 669.047H503.455L508.883 680.752Z" fill="#006CA7"/>
<path d="M512.188 680.752H509.231L516.058 669.047H518.966L512.188 680.752Z" fill="#006CA7"/>
<path d="M521.708 680.752H524.665L518.994 669.047H516.085L521.708 680.752Z" fill="#006CA7"/>
<path d="M525.012 680.752H522.055L528.687 669.047H531.602L525.012 680.752Z" fill="#006CA7"/>
<path d="M534.534 680.752H537.492L531.625 669.047H528.716L534.534 680.752Z" fill="#006CA7"/>
<path d="M537.84 680.752H534.883L541.32 669.047H544.235L537.84 680.752Z" fill="#006CA7"/>
<path d="M547.36 680.752H550.318L544.264 669.047H541.348L547.36 680.752Z" fill="#006CA7"/>
<path d="M550.664 680.752H547.706L553.956 669.047H556.865L550.664 680.752Z" fill="#006CA7"/>
<path d="M560.185 680.752H563.143L556.893 669.047H553.985L560.185 680.752Z" fill="#006CA7"/>
<path d="M563.489 680.752H560.532L566.586 669.047H569.495L563.489 680.752Z" fill="#006CA7"/>
<path d="M573.011 680.752H575.969L569.525 669.047H566.616L573.011 680.752Z" fill="#006CA7"/>
<path d="M576.316 680.752H573.358L579.218 669.047H582.134L576.316 680.752Z" fill="#006CA7"/>
<path d="M585.835 680.752H588.793L582.161 669.047H579.245L585.835 680.752Z" fill="#006CA7"/>
<path d="M589.142 680.752H586.185L591.856 669.047H594.765L589.142 680.752Z" fill="#006CA7"/>
<path d="M598.662 680.752H601.619L594.792 669.047H591.876L598.662 680.752Z" fill="#006CA7"/>
<path d="M601.966 680.752H599.009L604.486 669.047H607.394L601.966 680.752Z" fill="#006CA7"/>
<path d="M611.486 680.752H614.444L607.422 669.047H604.513L611.486 680.752Z" fill="#006CA7"/>
<path d="M614.793 680.752H611.835L617.117 669.047H620.026L614.793 680.752Z" fill="#006CA7"/>
<path d="M624.312 680.752H627.27L620.053 669.047H617.145L624.312 680.752Z" fill="#006CA7"/>
<path d="M627.61 680.752H624.659L629.746 669.047H632.662L627.61 680.752Z" fill="#006CA7"/>
<path d="M637.14 680.752H640.098L632.693 669.047H629.777L637.14 680.752Z" fill="#006CA7"/>
<path d="M632.996 669.047H478.06C503.454 625.908 511.631 555.044 512.097 537.041C512.549 519.407 513.245 492.315 513.245 492.315H597.804C597.804 492.315 598.5 519.407 598.953 537.041C599.419 555.044 607.596 625.908 632.989 669.047H632.996Z" fill="#4091BD"/>
<path d="M580.268 669.047H503.447C520.865 625.908 526.46 555.044 526.78 537.041C527.094 519.4 527.567 492.308 527.567 492.308H569.502C569.502 492.308 569.711 519.393 569.85 537.041C569.996 555.044 572.494 625.908 580.268 669.047Z" fill="#7FB5D3"/>
<path d="M237.145 711.121L226.205 755.972L256.192 759.228L244.577 711.128C243.624 707.168 238.119 707.161 237.152 711.121H237.145Z" fill="#7FB5D3"/>
<path d="M240.877 719.137C240.522 719.137 240.229 719.423 240.229 719.784V760.537C240.229 760.891 240.515 761.184 240.877 761.184C241.239 761.184 241.524 760.898 241.524 760.537V719.784C241.524 719.429 241.239 719.137 240.877 719.137Z" fill="#006CA7"/>
<path d="M246.145 732.374L241.517 737.099V732.255C241.517 732.13 241.482 732.012 241.42 731.908L237.349 725.484C237.161 725.185 236.757 725.095 236.458 725.283C236.159 725.47 236.068 725.874 236.256 726.173L240.223 732.443V738.686C240.223 738.95 240.383 739.187 240.626 739.284C240.703 739.319 240.786 739.333 240.87 739.333C241.037 739.333 241.204 739.263 241.329 739.138L247.063 733.278C247.314 733.021 247.307 732.617 247.056 732.367C246.799 732.116 246.395 732.123 246.145 732.374Z" fill="#006CA7"/>
<path d="M505.333 682.965C501.923 682.965 498.875 684.475 496.753 686.869C496.551 680.508 491.457 675.414 485.187 675.414C483.44 675.414 481.791 675.818 480.308 676.527C480.308 676.444 480.322 676.36 480.322 676.27C480.322 669.729 475.138 664.433 468.742 664.433C466.133 664.433 463.732 665.323 461.797 666.813C461.199 660.849 456.272 656.2 450.273 656.2C447.308 656.2 444.615 657.348 442.569 659.213C440.871 654.836 436.696 651.732 431.811 651.732C425.708 651.732 420.725 656.555 420.273 662.672C418.54 661.614 416.522 660.995 414.35 660.995C407.955 660.995 402.771 666.298 402.771 672.832V694.795H516.92C516.92 688.253 511.735 682.958 505.34 682.958L505.333 682.965Z" fill="#006CA7"/>
<path d="M305.512 759.924V785.763H202.797C200.772 780.314 198.921 774.775 197.23 769.166C199.665 765.415 203.82 762.952 208.552 762.952C210.605 762.952 212.547 763.432 214.3 764.267C214.293 764.169 214.279 764.072 214.279 763.961C214.279 756.271 220.376 750.036 227.898 750.036C230.974 750.036 233.793 751.086 236.068 752.833C236.778 745.818 242.582 740.342 249.624 740.342C253.111 740.342 256.284 741.699 258.692 743.898C260.585 739.02 265.094 735.491 270.46 735.129C270.766 735.109 271.058 735.102 271.364 735.102C278.532 735.102 284.406 740.78 284.935 747.976C286.89 746.779 289.159 746.062 291.601 746.013C291.699 746.006 291.796 746.006 291.894 746.006C299.416 746.006 305.512 752.242 305.512 759.931V759.924Z" fill="#BFDAE9"/>
<path d="M308.163 648.963L324.733 694.893H419.306L402.743 648.963H308.163Z" fill="#006CA7"/>
<path d="M315.331 648.963L331.893 694.893H337.711L321.148 648.963H315.331Z" fill="#BFDAE9"/>
<path d="M390.083 648.963L406.646 694.893H412.463L395.901 648.963H390.083Z" fill="#BFDAE9"/>
<path d="M330.279 648.963L346.842 694.893H352.667L336.097 648.963H330.279Z" fill="#BFDAE9"/>
<path d="M345.228 648.963L361.797 694.893H367.615L351.053 648.963H345.228Z" fill="#BFDAE9"/>
<path d="M360.182 648.963L376.744 694.893H382.562L366 648.963H360.182Z" fill="#BFDAE9"/>
<path d="M375.129 648.963L391.699 694.893H397.517L380.954 648.963H375.129Z" fill="#BFDAE9"/>
<path d="M324.733 694.9V785.771H291.601V694.9L308.163 648.963L324.733 694.9Z" fill="white"/>
<path d="M419.304 694.892H324.731V785.763H419.304V694.892Z" fill="#006CA7"/>
<path d="M444.116 719.611V785.763H353.155V719.611H386.231C390.977 713.925 395.73 708.247 400.476 702.561C406.753 708.247 413.03 713.925 419.307 719.611H444.11H444.116Z" fill="white"/>
<path d="M510.266 719.611V785.771H444.114V719.611L477.19 686.535L510.266 719.611Z" fill="#7FB5D3"/>
<path d="M353.155 719.611H444.116C455.14 708.588 466.17 697.558 477.193 686.535H388.521C376.732 697.558 364.943 708.588 353.155 719.611Z" fill="#4091BD"/>
<path d="M435.841 703.069C430.337 708.588 424.818 714.092 419.307 719.611C413.03 713.925 406.753 708.247 400.475 702.561C412.264 702.728 424.053 702.895 435.841 703.069Z" fill="#006CA7"/>
<path d="M460.296 736.146H456.823V739.695H460.296V736.146Z" fill="#006CA7"/>
<path d="M460.296 746.807H456.823V750.356H460.296V746.807Z" fill="#006CA7"/>
<path d="M460.296 757.461H456.823V761.01H460.296V757.461Z" fill="#006CA7"/>
<path d="M460.296 768.115H456.823V771.664H460.296V768.115Z" fill="#006CA7"/>
<path d="M470.721 736.146H467.248V739.695H470.721V736.146Z" fill="#006CA7"/>
<path d="M470.721 746.807H467.248V750.356H470.721V746.807Z" fill="#006CA7"/>
<path d="M470.721 757.461H467.248V761.01H470.721V757.461Z" fill="#006CA7"/>
<path d="M470.721 768.115H467.248V771.664H470.721V768.115Z" fill="#006CA7"/>
<path d="M481.145 736.146H477.673V739.695H481.145V736.146Z" fill="#006CA7"/>
<path d="M481.145 746.807H477.673V750.356H481.145V746.807Z" fill="#006CA7"/>
<path d="M481.145 757.461H477.673V761.01H481.145V757.461Z" fill="#006CA7"/>
<path d="M481.145 768.115H477.673V771.664H481.145V768.115Z" fill="#006CA7"/>
<path d="M491.569 736.146H488.096V739.695H491.569V736.146Z" fill="#006CA7"/>
<path d="M491.569 746.807H488.096V750.356H491.569V746.807Z" fill="#006CA7"/>
<path d="M491.569 757.461H488.096V761.01H491.569V757.461Z" fill="#006CA7"/>
<path d="M491.569 768.115H488.096V771.664H491.569V768.115Z" fill="#006CA7"/>
<path d="M501.994 736.146H498.521V739.695H501.994V736.146Z" fill="#006CA7"/>
<path d="M501.994 746.807H498.521V750.356H501.994V746.807Z" fill="#006CA7"/>
<path d="M501.994 757.461H498.521V761.01H501.994V757.461Z" fill="#006CA7"/>
<path d="M501.994 768.115H498.521V771.664H501.994V768.115Z" fill="#006CA7"/>
<path d="M365.867 736.834H361.42V749.054H365.867V736.834Z" fill="#006CA7"/>
<path d="M383.988 736.834H379.541V749.054H383.988V736.834Z" fill="#006CA7"/>
<path d="M402.11 736.834H397.663V749.054H402.11V736.834Z" fill="#006CA7"/>
<path d="M420.231 736.834H415.784V749.054H420.231V736.834Z" fill="#006CA7"/>
<path d="M438.353 736.834H433.906V749.054H438.353V736.834Z" fill="#006CA7"/>
<path d="M365.867 758.422H361.42V770.642H365.867V758.422Z" fill="#006CA7"/>
<path d="M383.988 758.422H379.541V770.642H383.988V758.422Z" fill="#006CA7"/>
<path d="M402.11 758.422H397.663V770.642H402.11V758.422Z" fill="#006CA7"/>
<path d="M420.231 758.422H415.784V770.642H420.231V758.422Z" fill="#006CA7"/>
<path d="M438.353 758.422H433.906V770.642H438.353V758.422Z" fill="#006CA7"/>
<path d="M365.867 747.627H361.42V749.005H365.867V747.627Z" fill="#006CA7"/>
<path d="M383.988 747.627H379.541V749.005H383.988V747.627Z" fill="#006CA7"/>
<path d="M402.11 747.627H397.663V749.005H402.11V747.627Z" fill="#006CA7"/>
<path d="M420.231 747.627H415.784V749.005H420.231V747.627Z" fill="#006CA7"/>
<path d="M438.353 747.627H433.906V749.005H438.353V747.627Z" fill="#006CA7"/>
<path d="M365.867 769.215H361.42V770.593H365.867V769.215Z" fill="#006CA7"/>
<path d="M383.988 769.215H379.541V770.593H383.988V769.215Z" fill="#006CA7"/>
<path d="M402.11 769.215H397.663V770.593H402.11V769.215Z" fill="#006CA7"/>
<path d="M420.231 769.215H415.784V770.593H420.231V769.215Z" fill="#006CA7"/>
<path d="M438.353 769.215H433.906V770.593H438.353V769.215Z" fill="#006CA7"/>
<path d="M559.885 719.263H601.64L580.763 694.454L559.885 719.263Z" fill="#006CA7"/>
<path d="M580.762 694.454L601.64 719.263H667.382L646.504 694.454H580.762Z" fill="#006CA7"/>
<path d="M600.665 719.263H559.885V785.764H600.665V719.263Z" fill="#006CA7"/>
<path d="M667.39 719.263H600.667V785.764H667.39V719.263Z" fill="#7FB5D3"/>
<path d="M612.177 727.53H609.497V730.265H612.177V727.53Z" fill="#006CA7"/>
<path d="M612.177 735.742H609.497V738.477H612.177V735.742Z" fill="#006CA7"/>
<path d="M612.177 743.947H609.497V746.682H612.177V743.947Z" fill="#006CA7"/>
<path d="M612.177 752.151H609.497V754.886H612.177V752.151Z" fill="#006CA7"/>
<path d="M612.177 760.356H609.497V763.091H612.177V760.356Z" fill="#006CA7"/>
<path d="M620.205 727.53H617.526V730.265H620.205V727.53Z" fill="#006CA7"/>
<path d="M620.205 735.742H617.526V738.477H620.205V735.742Z" fill="#006CA7"/>
<path d="M620.205 743.947H617.526V746.682H620.205V743.947Z" fill="#006CA7"/>
<path d="M620.205 752.151H617.526V754.886H620.205V752.151Z" fill="#006CA7"/>
<path d="M620.205 760.356H617.526V763.091H620.205V760.356Z" fill="#006CA7"/>
<path d="M628.237 727.53H625.558V730.265H628.237V727.53Z" fill="#006CA7"/>
<path d="M628.237 735.742H625.558V738.477H628.237V735.742Z" fill="#006CA7"/>
<path d="M628.237 743.947H625.558V746.682H628.237V743.947Z" fill="#006CA7"/>
<path d="M628.237 752.151H625.558V754.886H628.237V752.151Z" fill="#006CA7"/>
<path d="M628.237 760.356H625.558V763.091H628.237V760.356Z" fill="#006CA7"/>
<path d="M636.267 727.53H633.587V730.265H636.267V727.53Z" fill="#006CA7"/>
<path d="M636.267 735.742H633.587V738.477H636.267V735.742Z" fill="#006CA7"/>
<path d="M636.267 743.947H633.587V746.682H636.267V743.947Z" fill="#006CA7"/>
<path d="M636.267 752.151H633.587V754.886H636.267V752.151Z" fill="#006CA7"/>
<path d="M636.267 760.356H633.587V763.091H636.267V760.356Z" fill="#006CA7"/>
<path d="M644.292 727.53H641.613V730.265H644.292V727.53Z" fill="#006CA7"/>
<path d="M644.292 735.742H641.613V738.477H644.292V735.742Z" fill="#006CA7"/>
<path d="M644.292 743.947H641.613V746.682H644.292V743.947Z" fill="#006CA7"/>
<path d="M644.292 752.151H641.613V754.886H644.292V752.151Z" fill="#006CA7"/>
<path d="M644.292 760.356H641.613V763.091H644.292V760.356Z" fill="#006CA7"/>
<path d="M652.323 727.53H649.644V730.265H652.323V727.53Z" fill="#006CA7"/>
<path d="M652.323 735.742H649.644V738.477H652.323V735.742Z" fill="#006CA7"/>
<path d="M652.323 743.947H649.644V746.682H652.323V743.947Z" fill="#006CA7"/>
<path d="M652.323 752.151H649.644V754.886H652.323V752.151Z" fill="#006CA7"/>
<path d="M652.323 760.356H649.644V763.091H652.323V760.356Z" fill="#006CA7"/>
<path d="M660.354 727.53H657.675V730.265H660.354V727.53Z" fill="#006CA7"/>
<path d="M660.354 735.742H657.675V738.477H660.354V735.742Z" fill="#006CA7"/>
<path d="M660.354 743.947H657.675V746.682H660.354V743.947Z" fill="#006CA7"/>
<path d="M660.354 752.151H657.675V754.886H660.354V752.151Z" fill="#006CA7"/>
<path d="M660.354 760.356H657.675V763.091H660.354V760.356Z" fill="#006CA7"/>
<path d="M612.177 768.568H609.497V771.303H612.177V768.568Z" fill="#006CA7"/>
<path d="M620.205 768.568H617.526V771.303H620.205V768.568Z" fill="#006CA7"/>
<path d="M628.237 768.568H625.558V771.303H628.237V768.568Z" fill="#006CA7"/>
<path d="M636.267 768.568H633.587V771.303H636.267V768.568Z" fill="#006CA7"/>
<path d="M644.292 768.568H641.613V771.303H644.292V768.568Z" fill="#006CA7"/>
<path d="M652.323 768.568H649.644V771.303H652.323V768.568Z" fill="#006CA7"/>
<path d="M660.354 768.568H657.675V771.303H660.354V768.568Z" fill="#006CA7"/>
<path d="M639.031 694.454L659.908 719.263H661.996L641.118 694.454H639.031Z" fill="#7FB5D3"/>
<path d="M630.221 694.454L651.098 719.263H653.179L632.302 694.454H630.221Z" fill="#7FB5D3"/>
<path d="M621.405 694.454L642.282 719.263H644.369L623.492 694.454H621.405Z" fill="#7FB5D3"/>
<path d="M612.593 694.454L633.471 719.263H635.551L614.674 694.454H612.593Z" fill="#7FB5D3"/>
<path d="M603.776 694.454L624.653 719.263H626.741L605.864 694.454H603.776Z" fill="#7FB5D3"/>
<path d="M594.967 694.454L615.844 719.263H617.925L597.048 694.454H594.967Z" fill="#7FB5D3"/>
<path d="M586.148 694.454L607.026 719.263H609.113L588.236 694.454H586.148Z" fill="#7FB5D3"/>
<path d="M460.649 785.763L467.608 771.845C469.856 767.343 474.463 764.497 479.494 764.497H516.224C521.255 764.497 525.862 767.343 528.11 771.845L535.069 785.763H460.642H460.649Z" fill="#006CA7"/>
<path d="M543.342 744.42V785.77H518.533V711.343L543.342 744.42Z" fill="#BFDAE9"/>
<path d="M584.694 744.42H543.344V785.771H584.694V744.42Z" fill="#4091BD"/>
<path d="M584.693 744.42H543.342L518.533 711.343H559.884L584.693 744.42Z" fill="#006CA7"/>
<path d="M568.153 752.687H559.885V759.576H568.153V752.687Z" fill="#006CA7"/>
<path d="M568.153 769.229H559.885V776.758H568.153V769.229Z" fill="#006CA7"/>
<path d="M730.585 772.292C729.158 776.836 727.627 781.324 725.978 785.764H667.39V727.879C676.395 727.879 683.674 734.928 684.37 743.899C687.334 742.562 690.605 741.818 694.043 741.818C707.342 741.818 718.114 752.834 718.114 766.432C718.114 767.128 718.073 767.796 718.017 768.485C718.608 768.415 719.214 768.367 719.826 768.367C723.904 768.367 727.655 769.842 730.592 772.298L730.585 772.292Z" fill="#BFDAE9"/>
<path d="M602.315 660.173C603.38 663.416 604.5 666.562 605.677 669.568H606.192L606.637 669.394C605.482 666.444 604.375 663.361 603.324 660.173H626.762C626.602 659.853 626.449 659.54 626.289 659.213H603.004C601.599 654.885 600.29 650.375 599.072 645.74H620.402C620.277 645.42 620.151 645.1 620.026 644.78H598.822C597.667 640.326 596.588 635.775 595.593 631.161H615.19C615.085 630.841 614.988 630.521 614.883 630.201H595.391C594.417 625.643 593.512 621.036 592.684 616.436H610.826C610.743 616.116 610.659 615.796 610.569 615.476H592.51C591.675 610.806 590.916 606.15 590.221 601.564H607.138C607.068 601.244 606.992 600.924 606.922 600.604H590.074C589.358 595.809 588.717 591.098 588.147 586.54H604.034C603.972 586.22 603.916 585.9 603.853 585.58H588.028C587.416 580.632 586.887 575.865 586.435 571.355H601.466C601.418 571.035 601.369 570.715 601.32 570.395H586.337C585.815 565.183 585.405 560.353 585.078 556.017H599.427C599.393 555.697 599.358 555.377 599.323 555.057H585.008C584.57 549.058 584.305 544.09 584.201 540.52H598.112C598.098 540.186 598.084 539.873 598.07 539.559H584.173C584.166 539.204 584.159 538.857 584.152 538.529C584.083 534.34 583.999 529.622 583.916 524.855H597.688C597.681 524.535 597.674 524.215 597.66 523.895H583.895C583.811 519.016 583.728 514.131 583.651 509.768C583.651 509.517 583.644 509.274 583.637 509.03H597.27C597.263 508.71 597.256 508.39 597.242 508.07H583.616C583.554 504.319 583.498 501.041 583.456 498.605C583.408 495.85 583.38 494.186 583.38 494.138H582.419C582.419 494.138 582.447 495.829 582.496 498.619C582.538 501.048 582.593 504.326 582.656 508.063H555.404V494.138H554.444C554.444 494.138 554.444 495.815 554.444 498.612V508.063H527.192C527.255 504.319 527.311 501.048 527.353 498.619C527.401 495.829 527.429 494.152 527.429 494.145H526.949L526.469 494.138C526.469 494.186 526.441 495.85 526.392 498.605C526.35 501.041 526.295 504.319 526.232 508.07H512.606C512.599 508.383 512.592 508.71 512.578 509.03H526.211C526.135 513.574 526.044 518.738 525.954 523.895H512.189C512.182 524.215 512.175 524.535 512.161 524.855H525.933C525.849 529.615 525.773 534.34 525.696 538.529C525.696 538.85 525.682 539.197 525.675 539.559H511.778C511.764 539.866 511.75 540.186 511.736 540.52H525.648C525.536 544.09 525.279 549.058 524.84 555.057H510.526C510.491 555.37 510.456 555.69 510.421 556.017H524.771C524.444 560.353 524.026 565.183 523.511 570.395H508.528C508.48 570.708 508.431 571.035 508.382 571.355H523.414C522.961 575.858 522.426 580.625 521.82 585.58H505.995C505.94 585.9 505.877 586.22 505.814 586.54H521.702C521.131 591.105 520.491 595.816 519.774 600.604H502.926C502.857 600.924 502.787 601.244 502.711 601.564H519.628C518.939 606.15 518.174 610.806 517.338 615.476H499.28C499.196 615.796 499.113 616.116 499.022 616.436H517.164C516.336 621.036 515.432 625.643 514.457 630.201H494.965C494.861 630.521 494.763 630.841 494.659 631.161H514.256C513.26 635.768 512.182 640.326 511.027 644.78H489.822C489.697 645.1 489.572 645.42 489.447 645.74H510.776C509.558 650.375 508.243 654.885 506.844 659.213H483.559C483.406 659.533 483.246 659.853 483.086 660.173H506.524C505.473 663.361 504.374 666.444 503.212 669.394L503.657 669.568H504.172C505.348 666.562 506.468 663.416 507.533 660.173H554.437V669.568H555.397V660.173H602.301H602.315ZM602.002 659.213H555.411V645.74H598.084C599.302 650.368 600.603 654.885 602.002 659.213ZM597.834 644.787H555.411V631.168H594.612C595.607 635.775 596.679 640.333 597.834 644.787ZM594.41 630.215H555.411V616.45H591.703C592.531 621.043 593.429 625.65 594.403 630.215H594.41ZM591.536 615.489H555.411V601.578H589.253C589.942 606.164 590.708 610.82 591.536 615.489ZM589.107 600.618H555.411V586.554H587.186C587.757 591.119 588.397 595.83 589.107 600.618ZM587.061 585.593H555.411V571.369H585.474C585.927 575.872 586.456 580.639 587.068 585.593H587.061ZM585.37 570.416H555.404V556.038H584.11C584.438 560.374 584.848 565.203 585.37 570.416ZM584.041 555.078H555.404V540.541H583.234C583.345 544.118 583.602 549.086 584.041 555.078ZM583.185 538.571C583.185 538.891 583.199 539.232 583.206 539.58H555.404V524.883H582.948C583.032 529.65 583.108 534.382 583.185 538.571ZM582.677 509.058C582.753 513.602 582.844 518.766 582.934 523.922H555.411V509.058H582.684H582.677ZM527.165 509.809C527.165 509.552 527.172 509.308 527.179 509.058H554.451C554.451 513.602 554.451 518.766 554.451 523.922H526.928C527.012 519.051 527.095 514.166 527.172 509.809H527.165ZM526.671 538.564C526.74 534.375 526.824 529.643 526.907 524.876H554.451V539.573H526.65C526.657 539.218 526.664 538.884 526.671 538.564ZM526.622 540.534H554.451V555.071H525.815C526.253 549.079 526.51 544.111 526.622 540.534ZM525.745 556.031H554.451V570.409H524.485C525 565.196 525.418 560.367 525.745 556.031ZM524.395 571.369H554.458V585.593H522.808C523.421 580.639 523.95 575.879 524.402 571.369H524.395ZM522.683 586.547H554.458C554.458 591.112 554.458 595.823 554.458 600.611H520.762C521.479 595.816 522.119 591.105 522.683 586.547ZM520.616 601.571H554.458V615.482H518.334C519.169 610.813 519.927 606.15 520.616 601.571ZM518.16 616.443H554.451V630.208H515.453C516.427 625.643 517.325 621.043 518.153 616.443H518.16ZM515.251 631.168H554.451V644.787H512.029C513.184 640.333 514.256 635.775 515.251 631.168ZM507.86 659.213C509.259 654.885 510.56 650.368 511.778 645.74H554.451V659.213H507.86Z" fill="#BFDAE9"/>
<path d="M480.302 639.074L469.362 683.925L499.349 687.182L487.734 639.081C486.781 635.121 481.276 635.114 480.309 639.074H480.302Z" fill="#006CA7"/>
<path d="M484.032 647.091C483.677 647.091 483.385 647.376 483.385 647.738V676.089C483.385 676.444 483.671 676.736 484.032 676.736C484.394 676.736 484.68 676.451 484.68 676.089V647.738C484.68 647.383 484.394 647.091 484.032 647.091Z" fill="#7FB5D3"/>
<path d="M489.302 660.327L484.674 665.052V660.209C484.674 660.083 484.639 659.965 484.577 659.861L480.506 653.438C480.318 653.138 479.914 653.048 479.615 653.236C479.316 653.424 479.225 653.827 479.413 654.126L483.38 660.397V666.639C483.38 666.903 483.54 667.14 483.783 667.237C483.86 667.272 483.943 667.286 484.027 667.286C484.194 667.286 484.361 667.216 484.486 667.091L490.22 661.232C490.471 660.974 490.464 660.57 490.213 660.32C489.956 660.069 489.552 660.076 489.302 660.327Z" fill="#7FB5D3"/>
</g>
<defs>
<linearGradient id="paint0_linear_804_357" x1="366.567" y1="558.032" x2="190.384" y2="-72.3918" gradientUnits="userSpaceOnUse">
<stop stop-color="#00639E"/>
<stop offset="1" stop-color="#00B9F2"/>
</linearGradient>
<linearGradient id="paint1_linear_804_357" x1="470.128" y1="1243.27" x2="456.634" y2="565.332" gradientUnits="userSpaceOnUse">
<stop offset="0.38" stop-color="white" stop-opacity="0"/>
<stop offset="0.56" stop-color="#FCFDFE" stop-opacity="0.01"/>
<stop offset="0.65" stop-color="#F4F9FB" stop-opacity="0.05"/>
<stop offset="0.73" stop-color="#E7F1F6" stop-opacity="0.12"/>
<stop offset="0.79" stop-color="#D4E6F0" stop-opacity="0.22"/>
<stop offset="0.84" stop-color="#BBD8E7" stop-opacity="0.35"/>
<stop offset="0.89" stop-color="#9DC6DD" stop-opacity="0.51"/>
<stop offset="0.94" stop-color="#78B1D0" stop-opacity="0.7"/>
<stop offset="0.99" stop-color="#509AC2" stop-opacity="0.92"/>
<stop offset="1" stop-color="#4091BD"/>
</linearGradient>
<linearGradient id="paint2_linear_804_357" x1="475.404" y1="1393.11" x2="455.664" y2="401.742" gradientUnits="userSpaceOnUse">
<stop offset="0.38" stop-color="white" stop-opacity="0"/>
<stop offset="0.56" stop-color="#FCFDFE" stop-opacity="0.01"/>
<stop offset="0.65" stop-color="#F4F9FB" stop-opacity="0.05"/>
<stop offset="0.73" stop-color="#E7F1F6" stop-opacity="0.12"/>
<stop offset="0.79" stop-color="#D4E6F0" stop-opacity="0.22"/>
<stop offset="0.84" stop-color="#BBD8E7" stop-opacity="0.35"/>
<stop offset="0.89" stop-color="#9DC6DD" stop-opacity="0.51"/>
<stop offset="0.94" stop-color="#78B1D0" stop-opacity="0.7"/>
<stop offset="0.99" stop-color="#509AC2" stop-opacity="0.92"/>
<stop offset="1" stop-color="#4091BD"/>
</linearGradient>
<linearGradient id="paint3_linear_804_357" x1="469.39" y1="1224.24" x2="467.894" y2="657.989" gradientUnits="userSpaceOnUse">
<stop offset="0.74" stop-color="white" stop-opacity="0"/>
<stop offset="0.76" stop-color="#FDFEFE" stop-opacity="0.02"/>
<stop offset="0.8" stop-color="#F8FBFC" stop-opacity="0.09"/>
<stop offset="0.84" stop-color="#F1F7FA" stop-opacity="0.21"/>
<stop offset="0.88" stop-color="#E7F1F6" stop-opacity="0.37"/>
<stop offset="0.92" stop-color="#DAE9F2" stop-opacity="0.57"/>
<stop offset="0.97" stop-color="#CAE0EC" stop-opacity="0.82"/>
<stop offset="1" stop-color="#BFDAE9"/>
</linearGradient>
</defs>
</svg>
