<svg width="805" height="805" viewBox="0 0 805 805" fill="none" xmlns="http://www.w3.org/2000/svg">
<mask id="mask0_804_2243" style="mask-type:alpha" maskUnits="userSpaceOnUse" x="117" y="117" width="571" height="571">
<path d="M603.75 603.75C714.897 492.603 714.897 312.397 603.75 201.25C492.603 90.1027 312.397 90.1026 201.25 201.25C90.1027 312.397 90.1027 492.603 201.25 603.75C312.397 714.897 492.603 714.897 603.75 603.75Z" fill="black"/>
</mask>
<g mask="url(#mask0_804_2243)">
<path d="M92.1036 765.699C92.1891 689.565 92.2746 521.981 92.3662 445.848L125.636 467.179H190.979L300.578 525.646L353.305 553.774L409.585 583.795L451.649 563.141L504.375 537.261L613.975 483.46H679.318L712.588 463.832C712.673 533.89 712.759 695.397 712.85 765.454L92.1036 765.699Z" fill="url(#paint0_linear_804_2243)"/>
<path d="M-50.8972 746.785C-50.7722 635.452 -50.6473 390.39 -50.5134 279.057L-1.88107 310.25H93.6339L253.84 395.748L330.913 436.88L413.181 480.781L474.667 450.579L551.74 412.733L711.946 334.058H807.461L856.094 305.357C856.218 407.804 856.344 643.981 856.477 746.428L-50.8972 746.785Z" fill="url(#paint1_linear_804_2243)"/>
<path d="M320.634 550.988H318.747V564.918H320.634V550.988Z" fill="#006CA7"/>
<path d="M299.194 550.988H297.307V564.918H299.194V550.988Z" fill="#006CA7"/>
<path d="M317.942 564.063H321.441C322.156 564.063 322.736 564.643 322.736 565.358V565.614H316.641V565.358C316.641 564.643 317.221 564.063 317.936 564.063H317.942Z" fill="#006CA7"/>
<path d="M296.498 564.063H299.998C300.712 564.063 301.292 564.643 301.292 565.358V565.614H295.198V565.358C295.198 564.643 295.778 564.063 296.492 564.063H296.498Z" fill="#006CA7"/>
<path d="M326.454 552.796H293.532L287.242 531.788H320.164L326.454 552.796Z" fill="#4091BD"/>
<path d="M321.129 541.328H312.677L310.4 533.725H318.851L321.129 541.328Z" fill="#7FB5D3"/>
<path d="M323.98 550.86H315.528L313.257 543.257H321.709L323.98 550.86Z" fill="#7FB5D3"/>
<path d="M310.783 541.328H302.331L300.053 533.725H308.505L310.783 541.328Z" fill="#7FB5D3"/>
<path d="M313.642 550.86H305.191L302.913 543.257H311.365L313.642 550.86Z" fill="#7FB5D3"/>
<path d="M300.438 541.328H291.987L289.715 533.725H298.161L300.438 541.328Z" fill="#7FB5D3"/>
<path d="M303.297 550.86H294.845L292.568 543.257H301.019L303.297 550.86Z" fill="#7FB5D3"/>
<path d="M326.453 552.796L325.452 554.658H292.53L293.531 552.796H326.453Z" fill="#006CA7"/>
<path d="M293.531 552.796L292.529 554.658L286.239 533.657L287.241 531.788L293.531 552.796Z" fill="#006CA7"/>
<path d="M284.146 550.988H282.259V564.894H284.146V550.988Z" fill="#006CA7"/>
<path d="M262.729 550.988H260.842V564.894H262.729V550.988Z" fill="#006CA7"/>
<path d="M281.453 564.038H284.946C285.66 564.038 286.24 564.618 286.24 565.333V565.589H280.158V565.333C280.158 564.618 280.738 564.038 281.453 564.038Z" fill="#006CA7"/>
<path d="M260.042 564.038H263.535C264.25 564.038 264.83 564.618 264.83 565.333V565.589H258.748V565.333C258.748 564.618 259.328 564.038 260.042 564.038Z" fill="#006CA7"/>
<path d="M289.947 552.783H257.08L250.797 531.812H283.67L289.947 552.783Z" fill="#4091BD"/>
<path d="M284.627 541.333H276.194L273.922 533.742H282.356L284.627 541.333Z" fill="#7FB5D3"/>
<path d="M287.479 550.854H279.046L276.768 543.263H285.208L287.479 550.854Z" fill="#7FB5D3"/>
<path d="M274.3 541.333H265.867L263.595 533.742H272.029L274.3 541.333Z" fill="#7FB5D3"/>
<path d="M277.152 550.854H268.713L266.441 543.263H274.881L277.152 550.854Z" fill="#7FB5D3"/>
<path d="M263.974 541.333H255.54L253.262 533.742H261.702L263.974 541.333Z" fill="#7FB5D3"/>
<path d="M266.827 550.854H258.387L256.115 543.263H264.555L266.827 550.854Z" fill="#7FB5D3"/>
<path d="M289.948 552.784L288.953 554.652H256.08L257.081 552.784H289.948Z" fill="#006CA7"/>
<path d="M257.081 552.783L256.079 554.652L249.802 533.681L250.797 531.812L257.081 552.783Z" fill="#006CA7"/>
<path d="M247.462 550.988H245.575V564.894H247.462V550.988Z" fill="#006CA7"/>
<path d="M226.051 550.988H224.164V564.894H226.051V550.988Z" fill="#006CA7"/>
<path d="M244.769 564.038H248.262C248.976 564.038 249.556 564.618 249.556 565.333V565.589H243.474V565.333C243.474 564.618 244.054 564.038 244.769 564.038Z" fill="#006CA7"/>
<path d="M223.358 564.038H226.851C227.566 564.038 228.146 564.618 228.146 565.333V565.589H222.064V565.333C222.064 564.618 222.644 564.038 223.358 564.038Z" fill="#006CA7"/>
<path d="M253.264 552.783H220.397L214.119 531.812H246.986L253.264 552.783Z" fill="#4091BD"/>
<path d="M247.95 541.333H239.511L237.239 533.742H245.679L247.95 541.333Z" fill="#7FB5D3"/>
<path d="M250.797 550.854H242.364L240.092 543.263H248.525L250.797 550.854Z" fill="#7FB5D3"/>
<path d="M237.625 541.333H229.185L226.913 533.742H235.347L237.625 541.333Z" fill="#7FB5D3"/>
<path d="M240.471 550.854H232.038L229.766 543.263H238.2L240.471 550.854Z" fill="#7FB5D3"/>
<path d="M227.298 541.333H218.858L216.586 533.742H225.02L227.298 541.333Z" fill="#7FB5D3"/>
<path d="M230.144 550.854H221.711L219.439 543.263H227.873L230.144 550.854Z" fill="#7FB5D3"/>
<path d="M253.263 552.784L252.268 554.652H219.395L220.396 552.784H253.263Z" fill="#006CA7"/>
<path d="M220.521 552.759L219.52 554.628L213.242 533.657L214.243 531.788L220.521 552.759Z" fill="#006CA7"/>
<path d="M513.694 462.733H512.699L511.667 518.135H513.694H515.716L514.684 462.733H513.694Z" fill="#51B89F"/>
<path d="M515.855 503.902H511.525C510.97 503.902 510.518 504.513 510.518 505.27C510.518 506.028 510.97 506.638 511.525 506.638H515.855C516.411 506.638 516.863 506.028 516.863 505.27C516.863 504.513 516.411 503.902 515.855 503.902Z" fill="#51B89F"/>
<path d="M509.359 504.983C508.718 505.002 508.095 505.197 507.558 505.545L495.075 513.734C494.831 513.893 495.02 514.272 495.295 514.168L508.193 509.459C508.626 509.301 508.999 509.014 509.262 508.629C509.262 508.629 511.338 505.954 511.393 505.814L511.246 504.928L509.353 504.977L509.359 504.983Z" fill="#51B89F"/>
<path d="M516.845 506.198C516.491 505.905 516.052 505.722 515.594 505.685C515.594 505.685 512.235 505.227 512.088 505.246L511.392 505.814L512.381 507.426C512.717 507.969 513.2 508.415 513.768 508.702L527.105 515.413C527.368 515.542 527.594 515.194 527.374 515.004L516.845 506.186V506.198Z" fill="#51B89F"/>
<path d="M512.553 486.846C512.534 486.553 512.119 486.529 512.064 486.816L509.695 500.342C509.615 500.794 509.676 501.264 509.878 501.68C509.878 501.68 511.16 504.818 511.252 504.935L512.095 505.252L512.999 503.591C513.304 503.029 513.444 502.388 513.408 501.753L512.553 486.846Z" fill="#51B89F"/>
<path d="M511.525 503.902C510.97 503.902 510.518 504.513 510.518 505.27C510.518 506.028 510.97 506.638 511.525 506.638C512.081 506.638 512.533 506.028 512.533 505.27C512.533 504.513 512.081 503.902 511.525 503.902Z" fill="#51B89F"/>
<path d="M511.527 504.751C511.313 504.751 511.142 504.983 511.142 505.27C511.142 505.557 511.313 505.789 511.527 505.789C511.741 505.789 511.912 505.557 511.912 505.27C511.912 504.983 511.741 504.751 511.527 504.751Z" fill="#51B89F"/>
<path d="M511.197 504.202H510.94C510.604 504.202 509.145 504.715 509.151 505.27C509.151 505.783 510.641 506.339 510.94 506.339H511.197C511.588 506.339 511.911 505.863 511.911 505.27C511.911 504.678 511.594 504.202 511.197 504.202Z" fill="#51B89F"/>
<path fill-rule="evenodd" clip-rule="evenodd" d="M418.159 539.01C420.963 539.01 423.24 546.632 423.24 552.47C423.24 558.308 420.963 560.17 418.159 560.17C415.356 560.17 413.079 558.308 413.079 552.47C413.079 546.632 415.356 539.01 418.159 539.01Z" fill="#006CA7"/>
<path fill-rule="evenodd" clip-rule="evenodd" d="M379.821 547.419C381.513 547.419 382.881 552.012 382.881 555.529C382.881 559.047 381.507 560.17 379.821 560.17C378.136 560.17 376.762 559.047 376.762 555.529C376.762 552.012 378.136 547.419 379.821 547.419Z" fill="#006CA7"/>
<path fill-rule="evenodd" clip-rule="evenodd" d="M613.705 542.9C615.995 542.9 617.852 549.117 617.852 553.887C617.852 558.65 615.995 560.171 613.705 560.171C611.415 560.171 609.559 558.65 609.559 553.887C609.559 549.123 611.415 542.9 613.705 542.9Z" fill="#006CA7"/>
<path fill-rule="evenodd" clip-rule="evenodd" d="M551.068 521.16C552.76 521.16 554.128 525.752 554.128 529.27C554.128 532.788 552.754 533.911 551.068 533.911C549.377 533.911 548.009 532.788 548.009 529.27C548.009 525.752 549.383 521.16 551.068 521.16Z" fill="#006CA7"/>
<path fill-rule="evenodd" clip-rule="evenodd" d="M686.39 456.062C688.082 456.062 689.45 460.654 689.45 464.171C689.45 467.689 688.082 468.813 686.39 468.813C684.699 468.813 683.331 467.689 683.331 464.171C683.331 460.654 684.699 456.062 686.39 456.062Z" fill="#006CA7"/>
<path fill-rule="evenodd" clip-rule="evenodd" d="M591.996 445.698C593.688 445.698 595.056 450.29 595.056 453.808C595.056 457.325 593.682 458.449 591.996 458.449C590.311 458.449 588.937 457.325 588.937 453.808C588.937 450.29 590.311 445.698 591.996 445.698Z" fill="#006CA7"/>
<path fill-rule="evenodd" clip-rule="evenodd" d="M642.481 491.285C644.173 491.285 645.54 495.878 645.54 499.395C645.54 502.913 644.166 504.036 642.481 504.036C640.795 504.036 639.421 502.913 639.421 499.395C639.421 495.878 640.789 491.285 642.481 491.285Z" fill="#006CA7"/>
<path d="M594.591 504.855H593.602L592.57 560.257H594.591H596.619L595.587 504.855H594.591Z" fill="#006CA7"/>
<path d="M596.759 503.902H592.43C591.874 503.902 591.422 504.513 591.422 505.27C591.422 506.028 591.874 506.638 592.43 506.638H596.759C597.315 506.638 597.767 506.028 597.767 505.27C597.767 504.513 597.315 503.902 596.759 503.902Z" fill="#006CA7"/>
<path d="M590.262 504.983C589.621 505.002 588.998 505.197 588.46 505.545L575.978 513.734C575.734 513.893 575.923 514.272 576.198 514.168L589.095 509.459C589.529 509.301 589.902 509.014 590.164 508.629C590.164 508.629 592.24 505.954 592.295 505.814L592.149 504.928L590.256 504.977L590.262 504.983Z" fill="#006CA7"/>
<path d="M597.749 506.198C597.395 505.905 596.956 505.722 596.498 505.685C596.498 505.685 593.139 505.227 592.992 505.246L592.296 505.814L593.285 507.426C593.621 507.969 594.104 508.415 594.672 508.702L608.009 515.413C608.272 515.542 608.498 515.194 608.278 515.004L597.749 506.186V506.198Z" fill="#006CA7"/>
<path d="M593.45 486.846C593.431 486.553 593.016 486.529 592.961 486.816L590.592 500.342C590.512 500.794 590.573 501.264 590.775 501.68C590.775 501.68 592.057 504.818 592.149 504.935L592.992 505.252L593.896 503.591C594.201 503.029 594.341 502.388 594.305 501.753L593.45 486.846Z" fill="#006CA7"/>
<path d="M592.43 503.902C591.874 503.902 591.422 504.513 591.422 505.27C591.422 506.028 591.874 506.638 592.43 506.638C592.985 506.638 593.437 506.028 593.437 505.27C593.437 504.513 592.985 503.902 592.43 503.902Z" fill="#006CA7"/>
<path d="M592.43 504.751C592.216 504.751 592.045 504.983 592.045 505.27C592.045 505.557 592.216 505.789 592.43 505.789C592.643 505.789 592.814 505.557 592.814 505.27C592.814 504.983 592.643 504.751 592.43 504.751Z" fill="#006CA7"/>
<path d="M592.095 504.202H591.838C591.503 504.202 590.043 504.715 590.049 505.27C590.049 505.783 591.539 506.339 591.838 506.339H592.095C592.486 506.339 592.809 505.863 592.809 505.27C592.809 504.678 592.492 504.202 592.095 504.202Z" fill="#006CA7"/>
<path d="M645.817 403.048H644.828L643.789 458.449H645.817H647.844L646.812 403.048H645.817Z" fill="#006CA7"/>
<path d="M647.982 402.102H643.652C643.097 402.102 642.645 402.712 642.645 403.469C642.645 404.227 643.097 404.837 643.652 404.837H647.982C648.538 404.837 648.99 404.227 648.99 403.469C648.99 402.712 648.538 402.102 647.982 402.102Z" fill="#006CA7"/>
<path d="M641.486 403.183C640.845 403.201 640.222 403.396 639.684 403.744L627.202 411.94C626.958 412.099 627.147 412.477 627.422 412.373L640.32 407.665C640.753 407.506 641.126 407.219 641.388 406.835C641.388 406.835 643.465 404.16 643.52 404.019L643.373 403.134L641.48 403.183H641.486Z" fill="#006CA7"/>
<path d="M648.972 404.398C648.618 404.104 648.179 403.921 647.721 403.885C647.721 403.885 644.362 403.427 644.215 403.445L643.519 404.013L644.508 405.625C644.844 406.169 645.327 406.614 645.895 406.901L659.232 413.613C659.494 413.741 659.72 413.393 659.501 413.204L648.972 404.385V404.398Z" fill="#006CA7"/>
<path d="M644.674 385.039C644.656 384.746 644.24 384.721 644.185 385.008L641.816 398.535C641.736 398.987 641.798 399.457 641.999 399.872C641.999 399.872 643.282 403.011 643.373 403.127L644.216 403.445L645.12 401.784C645.425 401.222 645.565 400.581 645.529 399.946L644.674 385.039Z" fill="#006CA7"/>
<path d="M643.648 402.102C643.092 402.102 642.64 402.712 642.64 403.469C642.64 404.227 643.092 404.837 643.648 404.837C644.203 404.837 644.655 404.227 644.655 403.469C644.655 402.712 644.203 402.102 643.648 402.102Z" fill="#006CA7"/>
<path d="M643.648 402.95C643.434 402.95 643.263 403.182 643.263 403.469C643.263 403.756 643.434 403.988 643.648 403.988C643.862 403.988 644.033 403.756 644.033 403.469C644.033 403.182 643.862 402.95 643.648 402.95Z" fill="#006CA7"/>
<path d="M643.318 402.395H643.062C642.726 402.395 641.266 402.908 641.272 403.463C641.272 403.976 642.762 404.532 643.062 404.532H643.318C643.709 404.532 644.033 404.056 644.033 403.463C644.033 402.871 643.715 402.395 643.318 402.395Z" fill="#006CA7"/>
<path d="M570.067 411.463H569.072L568.04 466.864H570.067H572.095L571.057 411.463H570.067Z" fill="#006CA7"/>
<path d="M572.235 410.517H567.905C567.349 410.517 566.897 411.127 566.897 411.885C566.897 412.642 567.349 413.252 567.905 413.252H572.235C572.791 413.252 573.242 412.642 573.242 411.885C573.242 411.127 572.791 410.517 572.235 410.517Z" fill="#006CA7"/>
<path d="M565.731 411.598C565.089 411.616 564.466 411.812 563.929 412.16L551.447 420.355C551.202 420.514 551.392 420.893 551.667 420.789L564.564 416.081C564.998 415.922 565.37 415.635 565.633 415.25C565.633 415.25 567.709 412.575 567.764 412.435L567.618 411.549L565.724 411.598H565.731Z" fill="#006CA7"/>
<path d="M573.224 412.813C572.87 412.52 572.43 412.337 571.972 412.3C571.972 412.3 568.613 411.842 568.467 411.86L567.771 412.428L568.76 414.041C569.096 414.584 569.578 415.03 570.146 415.317L583.483 422.028C583.746 422.157 583.972 421.808 583.752 421.619L573.224 412.801V412.813Z" fill="#006CA7"/>
<path d="M568.924 393.454C568.906 393.161 568.491 393.136 568.436 393.423L566.066 406.95C565.987 407.402 566.048 407.872 566.249 408.287C566.249 408.287 567.532 411.426 567.623 411.542L568.466 411.86L569.37 410.199C569.675 409.637 569.816 408.996 569.779 408.361L568.924 393.454Z" fill="#006CA7"/>
<path d="M567.898 410.517C567.342 410.517 566.891 411.127 566.891 411.885C566.891 412.642 567.342 413.252 567.898 413.252C568.454 413.252 568.906 412.642 568.906 411.885C568.906 411.127 568.454 410.517 567.898 410.517Z" fill="#006CA7"/>
<path d="M567.9 411.366C567.686 411.366 567.515 411.598 567.515 411.885C567.515 412.172 567.686 412.404 567.9 412.404C568.113 412.404 568.284 412.172 568.284 411.885C568.284 411.598 568.113 411.366 567.9 411.366Z" fill="#006CA7"/>
<path d="M567.569 410.816H567.313C566.977 410.816 565.517 411.329 565.523 411.885C565.523 412.398 567.013 412.953 567.313 412.953H567.569C567.96 412.953 568.284 412.477 568.284 411.885C568.284 411.292 567.966 410.816 567.569 410.816Z" fill="#006CA7"/>
<path d="M675.496 504.855H674.5L673.468 560.257H675.496H677.523L676.491 504.855H675.496Z" fill="#006CA7"/>
<path d="M677.662 503.902H673.332C672.777 503.902 672.325 504.513 672.325 505.27C672.325 506.028 672.777 506.638 673.332 506.638H677.662C678.218 506.638 678.67 506.028 678.67 505.27C678.67 504.513 678.218 503.902 677.662 503.902Z" fill="#006CA7"/>
<path d="M671.165 504.983C670.523 505.002 669.901 505.197 669.363 505.545L656.881 513.734C656.637 513.893 656.826 514.272 657.101 514.168L669.998 509.459C670.432 509.301 670.804 509.014 671.067 508.629C671.067 508.629 673.143 505.954 673.198 505.814L673.052 504.928L671.159 504.977L671.165 504.983Z" fill="#006CA7"/>
<path d="M678.652 506.198C678.298 505.905 677.858 505.722 677.4 505.685C677.4 505.685 674.041 505.227 673.895 505.246L673.199 505.814L674.188 507.426C674.524 507.969 675.006 508.415 675.574 508.702L688.912 515.413C689.174 515.542 689.4 515.194 689.18 515.004L678.652 506.186V506.198Z" fill="#006CA7"/>
<path d="M674.354 486.846C674.336 486.553 673.92 486.529 673.865 486.816L671.496 500.342C671.416 500.794 671.478 501.264 671.679 501.68C671.679 501.68 672.961 504.818 673.053 504.935L673.896 505.252L674.8 503.591C675.105 503.029 675.245 502.388 675.209 501.753L674.354 486.846Z" fill="#006CA7"/>
<path d="M673.327 503.902C672.771 503.902 672.319 504.513 672.319 505.27C672.319 506.028 672.771 506.638 673.327 506.638C673.882 506.638 674.334 506.028 674.334 505.27C674.334 504.513 673.882 503.902 673.327 503.902Z" fill="#006CA7"/>
<path d="M673.328 504.751C673.114 504.751 672.943 504.983 672.943 505.27C672.943 505.557 673.114 505.789 673.328 505.789C673.542 505.789 673.713 505.557 673.713 505.27C673.713 504.983 673.542 504.751 673.328 504.751Z" fill="#006CA7"/>
<path d="M672.997 504.202H672.74C672.404 504.202 670.945 504.715 670.951 505.27C670.951 505.783 672.441 506.339 672.74 506.339H672.997C673.388 506.339 673.711 505.863 673.711 505.27C673.711 504.678 673.394 504.202 672.997 504.202Z" fill="#006CA7"/>
<path d="M290.208 472.82H291.204L292.236 528.221H290.208H288.181L289.213 472.82H290.208Z" fill="#006CA7"/>
<path d="M287.963 471.238H292.292C292.848 471.238 293.3 471.849 293.3 472.606C293.3 473.363 292.848 473.974 292.292 473.974H287.963C287.407 473.974 286.955 473.363 286.955 472.606C286.955 471.849 287.407 471.238 287.963 471.238Z" fill="#006CA7"/>
<path d="M294.539 472.954C295.18 472.973 295.803 473.168 296.341 473.516L308.823 481.705C309.067 481.864 308.878 482.243 308.603 482.139L295.705 477.431C295.272 477.272 294.899 476.985 294.637 476.6C294.637 476.6 292.56 473.925 292.505 473.785L292.652 472.899L294.545 472.948L294.539 472.954Z" fill="#006CA7"/>
<path d="M287.052 474.169C287.407 473.876 287.846 473.693 288.304 473.656C288.304 473.656 291.663 473.198 291.81 473.216L292.506 473.784L291.516 475.396C291.181 475.94 290.698 476.386 290.13 476.673L276.793 483.384C276.53 483.512 276.304 483.164 276.524 482.975L287.052 474.157V474.169Z" fill="#006CA7"/>
<path d="M291.352 454.81C291.37 454.517 291.786 454.492 291.841 454.779L294.21 468.306C294.29 468.758 294.228 469.228 294.027 469.643C294.027 469.643 292.744 472.782 292.653 472.898L291.81 473.216L290.906 471.555C290.601 470.993 290.461 470.352 290.497 469.717L291.352 454.81Z" fill="#006CA7"/>
<path d="M292.378 471.873C292.933 471.873 293.385 472.484 293.385 473.241C293.385 473.998 292.933 474.609 292.378 474.609C291.822 474.609 291.37 473.998 291.37 473.241C291.37 472.484 291.822 471.873 292.378 471.873Z" fill="#006CA7"/>
<path d="M292.377 472.722C292.59 472.722 292.761 472.954 292.761 473.241C292.761 473.528 292.59 473.76 292.377 473.76C292.163 473.76 291.992 473.528 291.992 473.241C291.992 472.954 292.163 472.722 292.377 472.722Z" fill="#006CA7"/>
<path d="M292.706 472.166H292.963C293.299 472.166 294.758 472.679 294.752 473.235C294.752 473.748 293.262 474.303 292.963 474.303H292.706C292.316 474.303 291.992 473.827 291.992 473.235C291.992 472.642 292.309 472.166 292.706 472.166Z" fill="#006CA7"/>
<path d="M260.286 390.524H261.276L262.308 445.926H260.286H258.259L259.291 390.524H260.286Z" fill="#006CA7"/>
<path d="M258.117 389.572H262.447C263.003 389.572 263.455 390.182 263.455 390.94C263.455 391.697 263.003 392.308 262.447 392.308H258.117C257.562 392.308 257.11 391.697 257.11 390.94C257.11 390.182 257.562 389.572 258.117 389.572Z" fill="#006CA7"/>
<path d="M264.615 390.652C265.256 390.67 265.879 390.866 266.417 391.214L278.899 399.403C279.143 399.562 278.954 399.941 278.679 399.837L265.781 395.128C265.348 394.97 264.975 394.683 264.713 394.298C264.713 394.298 262.636 391.623 262.581 391.483L262.728 390.597L264.621 390.646L264.615 390.652Z" fill="#006CA7"/>
<path d="M257.127 391.867C257.481 391.574 257.921 391.391 258.379 391.354C258.379 391.354 261.738 390.896 261.884 390.915L262.58 391.483L261.591 393.095C261.255 393.638 260.773 394.084 260.205 394.371L246.868 401.082C246.605 401.211 246.379 400.863 246.599 400.673L257.127 391.855V391.867Z" fill="#006CA7"/>
<path d="M261.422 372.515C261.441 372.222 261.856 372.197 261.911 372.485L264.28 386.011C264.36 386.463 264.299 386.933 264.097 387.349C264.097 387.349 262.815 390.487 262.723 390.603L261.88 390.921L260.976 389.26C260.671 388.698 260.531 388.057 260.567 387.422L261.422 372.515Z" fill="#006CA7"/>
<path d="M262.448 389.572C263.004 389.572 263.456 390.182 263.456 390.94C263.456 391.697 263.004 392.308 262.448 392.308C261.892 392.308 261.44 391.697 261.44 390.94C261.44 390.182 261.892 389.572 262.448 389.572Z" fill="#006CA7"/>
<path d="M262.447 390.42C262.661 390.42 262.832 390.652 262.832 390.939C262.832 391.226 262.661 391.459 262.447 391.459C262.233 391.459 262.062 391.226 262.062 390.939C262.062 390.652 262.233 390.42 262.447 390.42Z" fill="#006CA7"/>
<path d="M262.777 389.871H263.033C263.369 389.871 264.829 390.384 264.822 390.939C264.822 391.452 263.332 392.008 263.033 392.008H262.777C262.386 392.008 262.062 391.532 262.062 390.939C262.062 390.347 262.38 389.871 262.777 389.871Z" fill="#006CA7"/>
<path d="M209.306 472.82H210.302L211.334 528.221H209.306H207.285L208.317 472.82H209.306Z" fill="#006CA7"/>
<path d="M207.145 471.873H211.474C212.03 471.873 212.482 472.484 212.482 473.241C212.482 473.998 212.03 474.609 211.474 474.609H207.145C206.589 474.609 206.137 473.998 206.137 473.241C206.137 472.484 206.589 471.873 207.145 471.873Z" fill="#006CA7"/>
<path d="M213.641 472.954C214.282 472.973 214.905 473.168 215.443 473.516L227.925 481.705C228.169 481.864 227.98 482.243 227.705 482.139L214.807 477.431C214.374 477.272 214.001 476.985 213.739 476.6C213.739 476.6 211.662 473.925 211.607 473.785L211.754 472.899L213.647 472.948L213.641 472.954Z" fill="#006CA7"/>
<path d="M206.154 474.169C206.509 473.876 206.948 473.693 207.406 473.656C207.406 473.656 210.765 473.198 210.912 473.216L211.608 473.784L210.618 475.396C210.283 475.94 209.8 476.386 209.232 476.673L195.895 483.384C195.632 483.512 195.406 483.164 195.626 482.975L206.154 474.157V474.169Z" fill="#006CA7"/>
<path d="M210.448 454.81C210.467 454.517 210.882 454.492 210.937 454.779L213.306 468.306C213.386 468.758 213.325 469.228 213.123 469.643C213.123 469.643 211.841 472.782 211.749 472.898L210.906 473.216L210.003 471.555C209.697 470.993 209.557 470.352 209.593 469.717L210.448 454.81Z" fill="#006CA7"/>
<path d="M211.617 472.116C212.172 472.116 212.624 472.726 212.624 473.484C212.624 474.241 212.172 474.852 211.617 474.852C211.061 474.852 210.609 474.241 210.609 473.484C210.609 472.726 211.061 472.116 211.617 472.116Z" fill="#006CA7"/>
<path d="M211.947 472.409H212.203C212.539 472.409 213.999 472.922 213.993 473.477C213.993 473.99 212.503 474.546 212.203 474.546H211.947C211.556 474.546 211.232 474.07 211.232 473.477C211.232 472.885 211.55 472.409 211.947 472.409Z" fill="#006CA7"/>
<path d="M158.082 371.013H159.078L160.11 426.414H158.082H156.061L157.093 371.013H158.082Z" fill="#006CA7"/>
<path d="M155.919 370.066H160.249C160.805 370.066 161.257 370.677 161.257 371.434C161.257 372.192 160.805 372.802 160.249 372.802H155.919C155.364 372.802 154.912 372.192 154.912 371.434C154.912 370.677 155.364 370.066 155.919 370.066Z" fill="#006CA7"/>
<path d="M162.418 404.202C163.059 404.221 163.682 404.416 164.22 404.764L176.702 412.959C176.946 413.118 176.757 413.497 176.482 413.393L163.584 408.685C163.151 408.526 162.778 408.239 162.516 407.854C162.516 407.854 160.439 405.179 160.385 405.039L160.531 404.153L162.424 404.202H162.418Z" fill="#006CA7"/>
<path d="M154.93 372.363C155.285 372.07 155.724 371.887 156.182 371.85C156.182 371.85 159.541 371.392 159.688 371.41L160.384 371.978L159.394 373.59C159.059 374.134 158.576 374.58 158.008 374.867L144.671 381.578C144.408 381.706 144.182 381.358 144.402 381.169L154.93 372.351V372.363Z" fill="#006CA7"/>
<path d="M159.223 353.004C159.242 352.711 159.657 352.686 159.712 352.973L162.081 366.5C162.161 366.952 162.1 367.422 161.898 367.837C161.898 367.837 160.616 370.976 160.524 371.092L159.681 371.41L158.777 369.749C158.472 369.187 158.332 368.546 158.368 367.911L159.223 353.004Z" fill="#006CA7"/>
<path d="M160.249 403.121C160.805 403.121 161.257 403.732 161.257 404.489C161.257 405.246 160.805 405.857 160.249 405.857C159.693 405.857 159.241 405.246 159.241 404.489C159.241 403.732 159.693 403.121 160.249 403.121Z" fill="#006CA7"/>
<path d="M160.25 403.97C160.464 403.97 160.635 404.202 160.635 404.489C160.635 404.776 160.464 405.008 160.25 405.008C160.036 405.008 159.865 404.776 159.865 404.489C159.865 404.202 160.036 403.97 160.25 403.97Z" fill="#006CA7"/>
<path d="M160.58 370.365H160.836C161.172 370.365 162.632 370.878 162.626 371.434C162.626 371.947 161.136 372.503 160.836 372.503H160.58C160.189 372.503 159.865 372.026 159.865 371.434C159.865 370.842 160.183 370.365 160.58 370.365Z" fill="#006CA7"/>
<path d="M128.409 505.875H129.398L130.43 561.276H128.409H126.381L127.413 505.875H128.409Z" fill="#006CA7"/>
<path d="M126.241 504.928H130.571C131.126 504.928 131.578 505.539 131.578 506.296C131.578 507.053 131.126 507.664 130.571 507.664H126.241C125.685 507.664 125.233 507.053 125.233 506.296C125.233 505.539 125.685 504.928 126.241 504.928Z" fill="#006CA7"/>
<path d="M132.739 506.01C133.381 506.028 134.003 506.223 134.541 506.571L147.023 514.761C147.268 514.919 147.078 515.298 146.803 515.194L133.906 510.486C133.472 510.327 133.1 510.04 132.837 509.655C132.837 509.655 130.761 506.981 130.706 506.84L130.852 505.955L132.745 506.003L132.739 506.01Z" fill="#006CA7"/>
<path d="M125.251 507.225C125.606 506.932 126.045 506.748 126.503 506.712C126.503 506.712 129.862 506.254 130.009 506.272L130.705 506.84L129.716 508.452C129.38 508.996 128.897 509.441 128.329 509.728L114.992 516.44C114.729 516.568 114.503 516.22 114.723 516.031L125.251 507.212V507.225Z" fill="#006CA7"/>
<path d="M129.544 487.865C129.563 487.572 129.978 487.548 130.033 487.835L132.402 501.361C132.482 501.813 132.421 502.283 132.219 502.699C132.219 502.699 130.937 505.838 130.845 505.954L130.002 506.271L129.099 504.61C128.793 504.048 128.653 503.407 128.689 502.772L129.544 487.865Z" fill="#006CA7"/>
<path d="M130.57 504.928C131.126 504.928 131.578 505.539 131.578 506.296C131.578 507.053 131.126 507.664 130.57 507.664C130.014 507.664 129.562 507.053 129.562 506.296C129.562 505.539 130.014 504.928 130.57 504.928Z" fill="#006CA7"/>
<path d="M130.571 505.777C130.785 505.777 130.956 506.009 130.956 506.296C130.956 506.583 130.785 506.815 130.571 506.815C130.358 506.815 130.187 506.583 130.187 506.296C130.187 506.009 130.358 505.777 130.571 505.777Z" fill="#006CA7"/>
<path d="M130.901 505.221H131.158C131.494 505.221 132.953 505.734 132.947 506.29C132.947 506.803 131.457 507.359 131.158 507.359H130.901C130.51 507.359 130.187 506.882 130.187 506.29C130.187 505.698 130.504 505.221 130.901 505.221Z" fill="#006CA7"/>
<path fill-rule="evenodd" clip-rule="evenodd" d="M385.737 540.03C382.934 540.03 380.656 547.652 380.656 553.49C380.656 559.328 382.934 561.19 385.737 561.19C388.54 561.19 390.818 559.328 390.818 553.49C390.818 547.652 388.54 540.03 385.737 540.03Z" fill="#006CA7"/>
<path fill-rule="evenodd" clip-rule="evenodd" d="M424.076 548.439C422.384 548.439 421.016 553.032 421.016 556.549C421.016 560.067 422.39 561.191 424.076 561.191C425.767 561.191 427.135 560.067 427.135 556.549C427.135 553.032 425.761 548.439 424.076 548.439Z" fill="#006CA7"/>
<path fill-rule="evenodd" clip-rule="evenodd" d="M190.191 543.926C187.901 543.926 186.044 550.143 186.044 554.912C186.044 559.682 187.901 561.196 190.191 561.196C192.481 561.196 194.337 559.676 194.337 554.912C194.337 550.149 192.481 543.926 190.191 543.926Z" fill="#006CA7"/>
<path fill-rule="evenodd" clip-rule="evenodd" d="M117.508 457.087C115.817 457.087 114.449 461.679 114.449 465.197C114.449 468.714 115.817 469.838 117.508 469.838C119.2 469.838 120.568 468.714 120.568 465.197C120.568 461.679 119.2 457.087 117.508 457.087Z" fill="#006CA7"/>
<path fill-rule="evenodd" clip-rule="evenodd" d="M185.587 446.667C183.896 446.667 182.528 451.259 182.528 454.777C182.528 458.294 183.902 459.418 185.587 459.418C187.273 459.418 188.647 458.294 188.647 454.777C188.647 451.259 187.273 446.667 185.587 446.667Z" fill="#006CA7"/>
<path fill-rule="evenodd" clip-rule="evenodd" d="M161.422 492.306C159.731 492.306 158.363 496.898 158.363 500.416C158.363 503.933 159.737 505.057 161.422 505.057C163.114 505.057 164.482 503.933 164.482 500.416C164.482 496.898 163.114 492.306 161.422 492.306Z" fill="#006CA7"/>
<path d="M658.847 656.665V825.891H161.752V656.665H171.455C178.149 643.297 184.836 629.905 191.516 616.537C197.361 604.854 209.293 597.471 222.35 597.471H245.018L498.116 597.636V597.471H592.924C605.981 597.471 617.919 604.854 623.758 616.537C630.445 629.905 637.125 643.297 643.818 656.665H658.841H658.847Z" fill="url(#paint2_linear_804_2243)"/>
<path d="M414.971 597.386H412.375L418.873 587.114H421.432L414.971 597.386Z" fill="#006CA7"/>
<path d="M423.326 597.386H425.921L421.451 587.114H418.898L423.326 597.386Z" fill="#006CA7"/>
<path d="M426.227 597.386H423.631L429.958 587.114H432.517L426.227 597.386Z" fill="#006CA7"/>
<path d="M434.58 597.386H437.175L432.54 587.114H429.981L434.58 597.386Z" fill="#006CA7"/>
<path d="M437.481 597.386H434.886L441.048 587.114H443.6L437.481 597.386Z" fill="#006CA7"/>
<path d="M445.835 597.386H448.431L443.625 587.114H441.072L445.835 597.386Z" fill="#006CA7"/>
<path d="M448.736 597.386H446.141L452.132 587.114H454.684L448.736 597.386Z" fill="#006CA7"/>
<path d="M457.09 597.386H459.685L454.708 587.114H452.155L457.09 597.386Z" fill="#006CA7"/>
<path d="M459.99 597.386H457.394L463.214 587.114H465.773L459.99 597.386Z" fill="#006CA7"/>
<path d="M468.345 597.386H470.941L465.793 587.114H463.24L468.345 597.386Z" fill="#006CA7"/>
<path d="M471.246 597.386H468.651L474.3 587.114H476.858L471.246 597.386Z" fill="#006CA7"/>
<path d="M479.601 597.386H482.196L476.883 587.114H474.325L479.601 597.386Z" fill="#006CA7"/>
<path d="M482.5 597.386H479.905L485.389 587.114H487.941L482.5 597.386Z" fill="#006CA7"/>
<path d="M490.855 597.386H493.45L487.966 587.114H485.414L490.855 597.386Z" fill="#006CA7"/>
<path d="M493.755 597.386H491.159L496.472 587.114H499.025L493.755 597.386Z" fill="#006CA7"/>
<path d="M502.111 597.386H504.706L499.051 587.114H496.499L502.111 597.386Z" fill="#006CA7"/>
<path d="M505.011 597.386H502.415L507.557 587.114H510.116L505.011 597.386Z" fill="#006CA7"/>
<path d="M513.364 597.386H515.959L510.14 587.114H507.581L513.364 597.386Z" fill="#006CA7"/>
<path d="M516.266 597.386H513.671L518.648 587.114H521.201L516.266 597.386Z" fill="#006CA7"/>
<path d="M524.62 597.386H527.215L521.224 587.114H518.666L524.62 597.386Z" fill="#006CA7"/>
<path d="M527.52 597.386H524.924L529.73 587.114H532.283L527.52 597.386Z" fill="#006CA7"/>
<path d="M535.874 597.386H538.469L532.308 587.114H529.755L535.874 597.386Z" fill="#006CA7"/>
<path d="M538.776 597.386H536.18L540.815 587.114H543.368L538.776 597.386Z" fill="#006CA7"/>
<path d="M547.129 597.386H549.725L543.392 587.114H540.839L547.129 597.386Z" fill="#006CA7"/>
<path d="M550.023 597.386H547.434L551.898 587.114H554.456L550.023 597.386Z" fill="#006CA7"/>
<path d="M558.386 597.386H560.981L554.484 587.114H551.925L558.386 597.386Z" fill="#006CA7"/>
<path d="M554.75 587.114H418.787C441.071 549.258 448.247 487.072 448.656 471.274C449.053 455.799 449.664 432.025 449.664 432.025H523.868C523.868 432.025 524.478 455.799 524.875 471.274C525.284 487.072 532.46 549.258 554.744 587.114H554.75Z" fill="#4091BD"/>
<path d="M508.478 587.114H441.065C456.35 549.258 461.26 487.072 461.541 471.274C461.816 455.793 462.231 432.019 462.231 432.019H499.031C499.031 432.019 499.214 455.787 499.336 471.274C499.465 487.072 501.657 549.258 508.478 587.114Z" fill="#7FB5D3"/>
<path d="M207.375 624.036L197.775 663.395L224.089 666.253L213.897 624.042C213.06 620.567 208.23 620.561 207.381 624.036H207.375Z" fill="#7FB5D3"/>
<path d="M210.65 631.07C210.338 631.07 210.082 631.321 210.082 631.638V667.4C210.082 667.711 210.332 667.968 210.65 667.968C210.967 667.968 211.218 667.717 211.218 667.4V631.638C211.218 631.327 210.967 631.07 210.65 631.07Z" fill="#006CA7"/>
<path d="M215.273 642.686L211.212 646.833V642.582C211.212 642.473 211.181 642.369 211.126 642.277L207.554 636.641C207.389 636.378 207.035 636.299 206.772 636.463C206.509 636.628 206.43 636.982 206.595 637.245L210.076 642.747V648.225C210.076 648.457 210.216 648.665 210.43 648.75C210.497 648.781 210.57 648.793 210.644 648.793C210.79 648.793 210.937 648.732 211.047 648.622L216.079 643.48C216.299 643.254 216.293 642.9 216.073 642.68C215.847 642.46 215.493 642.466 215.273 642.686Z" fill="#006CA7"/>
<path d="M442.72 599.328C439.728 599.328 437.053 600.653 435.191 602.754C435.013 597.172 430.543 592.702 425.041 592.702C423.508 592.702 422.061 593.056 420.76 593.679C420.76 593.606 420.772 593.532 420.772 593.453C420.772 587.713 416.223 583.065 410.611 583.065C408.321 583.065 406.214 583.847 404.516 585.154C403.991 579.92 399.667 575.841 394.403 575.841C391.802 575.841 389.438 576.849 387.643 578.485C386.153 574.644 382.489 571.92 378.202 571.92C372.846 571.92 368.473 576.152 368.077 581.52C366.556 580.592 364.785 580.049 362.88 580.049C357.267 580.049 352.718 584.702 352.718 590.436V609.709H452.888C452.888 603.969 448.339 599.322 442.726 599.322L442.72 599.328Z" fill="#006CA7"/>
<path d="M267.37 666.863V689.537H177.233C175.456 684.756 173.832 679.895 172.348 674.973C174.485 671.681 178.131 669.519 182.284 669.519C184.085 669.519 185.789 669.94 187.328 670.673C187.322 670.588 187.31 670.502 187.31 670.405C187.31 663.657 192.659 658.185 199.261 658.185C201.96 658.185 204.433 659.107 206.43 660.64C207.053 654.484 212.146 649.678 218.326 649.678C221.386 649.678 224.17 650.869 226.283 652.799C227.944 648.518 231.902 645.422 236.61 645.104C236.879 645.086 237.135 645.08 237.404 645.08C243.694 645.08 248.848 650.063 249.312 656.377C251.028 655.327 253.019 654.698 255.163 654.655C255.248 654.649 255.334 654.649 255.419 654.649C262.021 654.649 267.37 660.121 267.37 666.869V666.863Z" fill="#BFDAE9"/>
<path d="M269.696 569.489L284.236 609.794H367.228L352.694 569.489H269.696Z" fill="#006CA7"/>
<path d="M275.986 569.489L290.52 609.794H295.625L281.091 569.489H275.986Z" fill="#BFDAE9"/>
<path d="M341.584 569.489L356.118 609.794H361.224L346.689 569.489H341.584Z" fill="#BFDAE9"/>
<path d="M289.104 569.489L303.638 609.794H308.75L294.209 569.489H289.104Z" fill="#BFDAE9"/>
<path d="M302.222 569.489L316.762 609.794H321.868L307.333 569.489H302.222Z" fill="#BFDAE9"/>
<path d="M315.345 569.489L329.879 609.794H334.984L320.45 569.489H315.345Z" fill="#BFDAE9"/>
<path d="M328.462 569.489L343.002 609.794H348.107L333.573 569.489H328.462Z" fill="#BFDAE9"/>
<path d="M284.237 609.8V689.543H255.162V609.8L269.696 569.489L284.237 609.8Z" fill="white"/>
<path d="M367.227 609.794H284.235V689.537H367.227V609.794Z" fill="#006CA7"/>
<path d="M389 631.486V689.538H309.178V631.486H338.204C342.369 626.497 346.54 621.514 350.705 616.524C356.213 621.514 361.721 626.497 367.23 631.486H388.994H389Z" fill="white"/>
<path d="M447.049 631.486V689.544H388.998V631.486L418.024 602.46L447.049 631.486Z" fill="#7FB5D3"/>
<path d="M309.178 631.486H389C398.674 621.813 408.353 612.134 418.026 602.46H340.213C329.868 612.134 319.523 621.813 309.178 631.486Z" fill="#4091BD"/>
<path d="M381.739 616.97C376.908 621.813 372.066 626.643 367.229 631.486C361.721 626.497 356.212 621.514 350.704 616.524C361.049 616.671 371.394 616.818 381.739 616.97Z" fill="#006CA7"/>
<path d="M403.198 645.996H400.151V649.111H403.198V645.996Z" fill="#006CA7"/>
<path d="M403.198 655.352H400.151V658.466H403.198V655.352Z" fill="#006CA7"/>
<path d="M403.198 664.702H400.151V667.816H403.198V664.702Z" fill="#006CA7"/>
<path d="M403.198 674.051H400.151V677.165H403.198V674.051Z" fill="#006CA7"/>
<path d="M412.347 645.996H409.299V649.111H412.347V645.996Z" fill="#006CA7"/>
<path d="M412.347 655.352H409.299V658.466H412.347V655.352Z" fill="#006CA7"/>
<path d="M412.347 664.702H409.299V667.816H412.347V664.702Z" fill="#006CA7"/>
<path d="M412.347 674.051H409.299V677.165H412.347V674.051Z" fill="#006CA7"/>
<path d="M421.495 645.996H418.448V649.111H421.495V645.996Z" fill="#006CA7"/>
<path d="M421.495 655.352H418.448V658.466H421.495V655.352Z" fill="#006CA7"/>
<path d="M421.495 664.702H418.448V667.816H421.495V664.702Z" fill="#006CA7"/>
<path d="M421.495 674.051H418.448V677.165H421.495V674.051Z" fill="#006CA7"/>
<path d="M430.642 645.996H427.594V649.111H430.642V645.996Z" fill="#006CA7"/>
<path d="M430.642 655.352H427.594V658.466H430.642V655.352Z" fill="#006CA7"/>
<path d="M430.642 664.702H427.594V667.816H430.642V664.702Z" fill="#006CA7"/>
<path d="M430.642 674.051H427.594V677.165H430.642V674.051Z" fill="#006CA7"/>
<path d="M439.79 645.996H436.743V649.111H439.79V645.996Z" fill="#006CA7"/>
<path d="M439.79 655.352H436.743V658.466H439.79V655.352Z" fill="#006CA7"/>
<path d="M439.79 664.702H436.743V667.816H439.79V664.702Z" fill="#006CA7"/>
<path d="M439.79 674.051H436.743V677.165H439.79V674.051Z" fill="#006CA7"/>
<path d="M320.333 646.6H316.431V657.324H320.333V646.6Z" fill="#006CA7"/>
<path d="M336.235 646.6H332.333V657.324H336.235V646.6Z" fill="#006CA7"/>
<path d="M352.138 646.6H348.236V657.324H352.138V646.6Z" fill="#006CA7"/>
<path d="M368.04 646.6H364.138V657.324H368.04V646.6Z" fill="#006CA7"/>
<path d="M383.942 646.6H380.04V657.324H383.942V646.6Z" fill="#006CA7"/>
<path d="M320.333 665.544H316.431V676.268H320.333V665.544Z" fill="#006CA7"/>
<path d="M336.235 665.544H332.333V676.268H336.235V665.544Z" fill="#006CA7"/>
<path d="M352.138 665.544H348.236V676.268H352.138V665.544Z" fill="#006CA7"/>
<path d="M368.04 665.544H364.138V676.268H368.04V665.544Z" fill="#006CA7"/>
<path d="M383.942 665.544H380.04V676.268H383.942V665.544Z" fill="#006CA7"/>
<path d="M320.333 656.072H316.431V657.281H320.333V656.072Z" fill="#006CA7"/>
<path d="M336.235 656.072H332.333V657.281H336.235V656.072Z" fill="#006CA7"/>
<path d="M352.138 656.072H348.236V657.281H352.138V656.072Z" fill="#006CA7"/>
<path d="M368.04 656.072H364.138V657.281H368.04V656.072Z" fill="#006CA7"/>
<path d="M383.942 656.072H380.04V657.281H383.942V656.072Z" fill="#006CA7"/>
<path d="M320.333 675.016H316.431V676.225H320.333V675.016Z" fill="#006CA7"/>
<path d="M336.235 675.016H332.333V676.225H336.235V675.016Z" fill="#006CA7"/>
<path d="M352.138 675.016H348.236V676.225H352.138V675.016Z" fill="#006CA7"/>
<path d="M368.04 675.016H364.138V676.225H368.04V675.016Z" fill="#006CA7"/>
<path d="M383.942 675.016H380.04V676.225H383.942V675.016Z" fill="#006CA7"/>
<path d="M490.592 631.181H527.233L508.913 609.41L490.592 631.181Z" fill="#006CA7"/>
<path d="M508.913 609.41L527.233 631.181H584.924L566.604 609.41H508.913Z" fill="#006CA7"/>
<path d="M526.378 631.181H490.592V689.538H526.378V631.181Z" fill="#006CA7"/>
<path d="M584.932 631.181H526.379V689.538H584.932V631.181Z" fill="#7FB5D3"/>
<path d="M536.48 638.436H534.128V640.836H536.48V638.436Z" fill="#006CA7"/>
<path d="M536.48 645.642H534.128V648.042H536.48V645.642Z" fill="#006CA7"/>
<path d="M536.48 652.842H534.128V655.242H536.48V652.842Z" fill="#006CA7"/>
<path d="M536.48 660.042H534.128V662.441H536.48V660.042Z" fill="#006CA7"/>
<path d="M536.48 667.242H534.128V669.642H536.48V667.242Z" fill="#006CA7"/>
<path d="M543.525 638.436H541.174V640.836H543.525V638.436Z" fill="#006CA7"/>
<path d="M543.525 645.642H541.174V648.042H543.525V645.642Z" fill="#006CA7"/>
<path d="M543.525 652.842H541.174V655.242H543.525V652.842Z" fill="#006CA7"/>
<path d="M543.525 660.042H541.174V662.441H543.525V660.042Z" fill="#006CA7"/>
<path d="M543.525 667.242H541.174V669.642H543.525V667.242Z" fill="#006CA7"/>
<path d="M550.573 638.436H548.222V640.836H550.573V638.436Z" fill="#006CA7"/>
<path d="M550.573 645.642H548.222V648.042H550.573V645.642Z" fill="#006CA7"/>
<path d="M550.573 652.842H548.222V655.242H550.573V652.842Z" fill="#006CA7"/>
<path d="M550.573 660.042H548.222V662.441H550.573V660.042Z" fill="#006CA7"/>
<path d="M550.573 667.242H548.222V669.642H550.573V667.242Z" fill="#006CA7"/>
<path d="M557.62 638.436H555.269V640.836H557.62V638.436Z" fill="#006CA7"/>
<path d="M557.62 645.642H555.269V648.042H557.62V645.642Z" fill="#006CA7"/>
<path d="M557.62 652.842H555.269V655.242H557.62V652.842Z" fill="#006CA7"/>
<path d="M557.62 660.042H555.269V662.441H557.62V660.042Z" fill="#006CA7"/>
<path d="M557.62 667.242H555.269V669.642H557.62V667.242Z" fill="#006CA7"/>
<path d="M564.662 638.436H562.311V640.836H564.662V638.436Z" fill="#006CA7"/>
<path d="M564.662 645.642H562.311V648.042H564.662V645.642Z" fill="#006CA7"/>
<path d="M564.662 652.842H562.311V655.242H564.662V652.842Z" fill="#006CA7"/>
<path d="M564.662 660.042H562.311V662.441H564.662V660.042Z" fill="#006CA7"/>
<path d="M564.662 667.242H562.311V669.642H564.662V667.242Z" fill="#006CA7"/>
<path d="M571.71 638.436H569.359V640.836H571.71V638.436Z" fill="#006CA7"/>
<path d="M571.71 645.642H569.359V648.042H571.71V645.642Z" fill="#006CA7"/>
<path d="M571.71 652.842H569.359V655.242H571.71V652.842Z" fill="#006CA7"/>
<path d="M571.71 660.042H569.359V662.441H571.71V660.042Z" fill="#006CA7"/>
<path d="M571.71 667.242H569.359V669.642H571.71V667.242Z" fill="#006CA7"/>
<path d="M578.757 638.436H576.406V640.836H578.757V638.436Z" fill="#006CA7"/>
<path d="M578.757 645.642H576.406V648.042H578.757V645.642Z" fill="#006CA7"/>
<path d="M578.757 652.842H576.406V655.242H578.757V652.842Z" fill="#006CA7"/>
<path d="M578.757 660.042H576.406V662.441H578.757V660.042Z" fill="#006CA7"/>
<path d="M578.757 667.242H576.406V669.642H578.757V667.242Z" fill="#006CA7"/>
<path d="M536.48 674.448H534.128V676.848H536.48V674.448Z" fill="#006CA7"/>
<path d="M543.525 674.448H541.174V676.848H543.525V674.448Z" fill="#006CA7"/>
<path d="M550.573 674.448H548.222V676.848H550.573V674.448Z" fill="#006CA7"/>
<path d="M557.62 674.448H555.269V676.848H557.62V674.448Z" fill="#006CA7"/>
<path d="M564.662 674.448H562.311V676.848H564.662V674.448Z" fill="#006CA7"/>
<path d="M571.71 674.448H569.359V676.848H571.71V674.448Z" fill="#006CA7"/>
<path d="M578.757 674.448H576.406V676.848H578.757V674.448Z" fill="#006CA7"/>
<path d="M560.045 609.41L578.366 631.181H580.198L561.877 609.41H560.045Z" fill="#7FB5D3"/>
<path d="M552.314 609.41L570.634 631.181H572.46L554.14 609.41H552.314Z" fill="#7FB5D3"/>
<path d="M544.578 609.41L562.898 631.181H564.73L546.41 609.41H544.578Z" fill="#7FB5D3"/>
<path d="M536.845 609.41L555.166 631.181H556.992L538.671 609.41H536.845Z" fill="#7FB5D3"/>
<path d="M529.108 609.41L547.428 631.181H549.26L530.94 609.41H529.108Z" fill="#7FB5D3"/>
<path d="M521.378 609.41L539.698 631.181H541.524L523.204 609.41H521.378Z" fill="#7FB5D3"/>
<path d="M513.639 609.41L531.959 631.181H533.791L515.471 609.41H513.639Z" fill="#7FB5D3"/>
<path d="M403.508 689.537L409.615 677.324C411.588 673.373 415.63 670.875 420.046 670.875H452.278C456.693 670.875 460.735 673.373 462.708 677.324L468.815 689.537H403.502H403.508Z" fill="#006CA7"/>
<path d="M476.075 653.257V689.543H454.304V624.231L476.075 653.257Z" fill="#BFDAE9"/>
<path d="M512.363 653.257H476.076V689.544H512.363V653.257Z" fill="#4091BD"/>
<path d="M512.362 653.257H476.075L454.304 624.231H490.591L512.362 653.257Z" fill="#006CA7"/>
<path d="M497.847 660.512H490.592V666.557H497.847V660.512Z" fill="#006CA7"/>
<path d="M497.847 675.028H490.592V681.635H497.847V675.028Z" fill="#006CA7"/>
<path d="M640.387 677.715C639.135 681.703 637.792 685.642 636.345 689.538H584.931V638.741C592.833 638.741 599.221 644.927 599.832 652.799C602.433 651.627 605.304 650.973 608.32 650.973C619.99 650.973 629.444 660.64 629.444 672.573C629.444 673.184 629.407 673.77 629.358 674.375C629.877 674.313 630.409 674.271 630.946 674.271C634.525 674.271 637.816 675.565 640.393 677.721L640.387 677.715Z" fill="#BFDAE9"/>
<path d="M527.826 579.328C528.76 582.174 529.744 584.934 530.776 587.572H531.228L531.618 587.419C530.605 584.83 529.634 582.125 528.712 579.328H549.279C549.139 579.047 549.004 578.772 548.864 578.485H528.431C527.197 574.687 526.049 570.729 524.98 566.662H543.698C543.588 566.381 543.478 566.1 543.368 565.819H524.76C523.747 561.911 522.8 557.917 521.927 553.868H539.124C539.032 553.587 538.947 553.307 538.855 553.026H521.75C520.895 549.026 520.101 544.983 519.374 540.946H535.295C535.221 540.665 535.148 540.385 535.069 540.104H519.221C518.489 536.006 517.823 531.92 517.212 527.896H532.058C531.997 527.615 531.93 527.334 531.869 527.053H517.084C516.455 522.846 515.893 518.711 515.392 514.711H529.334C529.279 514.431 529.231 514.15 529.176 513.869H515.289C514.751 509.527 514.287 505.344 513.89 501.386H527.081C527.038 501.105 526.995 500.825 526.953 500.544H513.805C513.347 495.97 512.986 491.731 512.699 487.927H525.292C525.261 487.646 525.231 487.365 525.2 487.084H512.638C512.254 481.82 512.022 477.46 511.93 474.327H524.137C524.125 474.034 524.113 473.759 524.101 473.484H511.906C511.899 473.173 511.893 472.867 511.887 472.58C511.826 468.904 511.753 464.764 511.68 460.581H523.765C523.759 460.3 523.753 460.019 523.741 459.738H511.661C511.588 455.457 511.515 451.17 511.448 447.341C511.448 447.121 511.441 446.907 511.435 446.694H523.399C523.392 446.413 523.386 446.132 523.374 445.851H511.417C511.362 442.559 511.313 439.683 511.276 437.546C511.234 435.127 511.209 433.668 511.209 433.625H510.367C510.367 433.625 510.391 435.109 510.434 437.558C510.47 439.689 510.519 442.565 510.574 445.845H486.66V433.625H485.817C485.817 433.625 485.817 435.097 485.817 437.552V445.845H461.903C461.958 442.559 462.007 439.689 462.043 437.558C462.086 435.109 462.11 433.637 462.11 433.631H461.689L461.268 433.625C461.268 433.668 461.243 435.127 461.201 437.546C461.164 439.683 461.115 442.559 461.06 445.851H449.103C449.097 446.126 449.091 446.413 449.078 446.694H461.042C460.975 450.681 460.895 455.213 460.816 459.738H448.737C448.73 460.019 448.724 460.3 448.712 460.581H460.797C460.724 464.758 460.657 468.904 460.59 472.58C460.59 472.861 460.578 473.167 460.572 473.484H448.376C448.364 473.753 448.352 474.034 448.34 474.327H460.547C460.449 477.46 460.223 481.82 459.839 487.084H447.277C447.246 487.359 447.216 487.64 447.185 487.927H459.778C459.491 491.731 459.124 495.97 458.672 500.544H445.524C445.482 500.818 445.439 501.105 445.396 501.386H458.587C458.19 505.337 457.72 509.521 457.188 513.869H443.301C443.253 514.15 443.198 514.431 443.143 514.711H457.085C456.584 518.718 456.022 522.852 455.393 527.053H440.608C440.547 527.334 440.486 527.615 440.419 527.896H455.265C454.66 531.92 453.988 536.006 453.256 540.104H437.408C437.335 540.385 437.262 540.665 437.182 540.946H453.103C452.376 544.983 451.582 549.026 450.727 553.026H433.622C433.531 553.307 433.445 553.587 433.353 553.868H450.55C449.677 557.911 448.73 561.911 447.717 565.819H429.109C428.999 566.1 428.889 566.381 428.779 566.662H447.497C446.428 570.729 445.274 574.687 444.046 578.485H423.613C423.479 578.766 423.338 579.047 423.198 579.328H443.766C442.843 582.125 441.879 584.83 440.859 587.419L441.25 587.572H441.701C442.733 584.934 443.717 582.174 444.651 579.328H485.811V587.572H486.654V579.328H527.814H527.826ZM527.551 578.485H486.666V566.662H524.113C525.182 570.723 526.324 574.687 527.551 578.485ZM523.893 565.826H486.666V553.875H521.066C521.939 557.917 522.879 561.917 523.893 565.826ZM520.889 553.038H486.666V540.959H518.513C519.24 544.989 520.028 549.032 520.883 553.038H520.889ZM518.367 540.116H486.666V527.908H516.363C516.968 531.933 517.64 536.018 518.367 540.116ZM516.235 527.066H486.666V514.724H514.55C515.051 518.73 515.612 522.864 516.235 527.066ZM514.44 513.881H486.666V501.399H513.047C513.444 505.35 513.909 509.533 514.446 513.881H514.44ZM512.956 500.562H486.66V487.945H511.851C512.138 491.75 512.498 495.988 512.956 500.562ZM511.789 487.102H486.66V474.345H511.081C511.179 477.484 511.405 481.844 511.789 487.102ZM511.038 472.617C511.038 472.898 511.051 473.197 511.057 473.503H486.66V460.605H510.831C510.904 464.788 510.971 468.941 511.038 472.617ZM510.593 446.718C510.66 450.706 510.739 455.237 510.818 459.762H486.666V446.718H510.599H510.593ZM461.878 447.378C461.878 447.152 461.884 446.938 461.891 446.718H485.823C485.823 450.706 485.823 455.237 485.823 459.762H461.671C461.744 455.487 461.817 451.2 461.884 447.378H461.878ZM461.445 472.611C461.506 468.935 461.579 464.782 461.652 460.599H485.823V473.496H461.426C461.433 473.185 461.439 472.892 461.445 472.611ZM461.402 474.339H485.823V487.096H460.694C461.078 481.838 461.304 477.478 461.402 474.339ZM460.633 487.939H485.823V500.556H459.527C459.979 495.982 460.346 491.744 460.633 487.939ZM459.448 501.399H485.829V513.881H458.056C458.593 509.533 459.057 505.356 459.454 501.399H459.448ZM457.946 514.718H485.829C485.829 518.724 485.829 522.858 485.829 527.059H456.26C456.889 522.852 457.451 518.718 457.946 514.718ZM456.132 527.902H485.829V540.11H454.129C454.862 536.012 455.527 531.92 456.132 527.902ZM453.976 540.952H485.823V553.032H451.601C452.456 549.026 453.243 544.989 453.97 540.952H453.976ZM451.423 553.875H485.823V565.826H448.596C449.61 561.917 450.55 557.917 451.423 553.875ZM444.938 578.485C446.166 574.687 447.307 570.723 448.376 566.662H485.823V578.485H444.938Z" fill="#BFDAE9"/>
<path d="M420.755 560.812L411.155 600.17L437.469 603.028L427.277 560.818C426.44 557.343 421.61 557.337 420.761 560.812H420.755Z" fill="#006CA7"/>
<path d="M424.028 567.847C423.717 567.847 423.46 568.098 423.46 568.415V593.294C423.46 593.606 423.711 593.862 424.028 593.862C424.346 593.862 424.596 593.612 424.596 593.294V568.415C424.596 568.104 424.346 567.847 424.028 567.847Z" fill="#7FB5D3"/>
<path d="M428.652 579.462L424.591 583.609V579.358C424.591 579.248 424.561 579.145 424.506 579.053L420.933 573.416C420.768 573.154 420.414 573.074 420.152 573.239C419.889 573.404 419.81 573.758 419.974 574.021L423.455 579.523V585.001C423.455 585.233 423.596 585.441 423.81 585.526C423.877 585.557 423.95 585.569 424.023 585.569C424.17 585.569 424.316 585.508 424.426 585.398L429.458 580.256C429.678 580.03 429.672 579.676 429.452 579.456C429.226 579.236 428.872 579.242 428.652 579.462Z" fill="#7FB5D3"/>
</g>
<defs>
<linearGradient id="paint0_linear_804_2243" x1="411.827" y1="1091.02" x2="399.985" y2="496.101" gradientUnits="userSpaceOnUse">
<stop offset="0.38" stop-color="white" stop-opacity="0"/>
<stop offset="0.56" stop-color="#FCFDFE" stop-opacity="0.01"/>
<stop offset="0.65" stop-color="#F4F9FB" stop-opacity="0.05"/>
<stop offset="0.73" stop-color="#E7F1F6" stop-opacity="0.12"/>
<stop offset="0.79" stop-color="#D4E6F0" stop-opacity="0.22"/>
<stop offset="0.84" stop-color="#BBD8E7" stop-opacity="0.35"/>
<stop offset="0.89" stop-color="#9DC6DD" stop-opacity="0.51"/>
<stop offset="0.94" stop-color="#78B1D0" stop-opacity="0.7"/>
<stop offset="0.99" stop-color="#509AC2" stop-opacity="0.92"/>
<stop offset="1" stop-color="#4091BD"/>
</linearGradient>
<linearGradient id="paint1_linear_804_2243" x1="416.457" y1="1222.51" x2="399.134" y2="352.544" gradientUnits="userSpaceOnUse">
<stop offset="0.38" stop-color="white" stop-opacity="0"/>
<stop offset="0.56" stop-color="#FCFDFE" stop-opacity="0.01"/>
<stop offset="0.65" stop-color="#F4F9FB" stop-opacity="0.05"/>
<stop offset="0.73" stop-color="#E7F1F6" stop-opacity="0.12"/>
<stop offset="0.79" stop-color="#D4E6F0" stop-opacity="0.22"/>
<stop offset="0.84" stop-color="#BBD8E7" stop-opacity="0.35"/>
<stop offset="0.89" stop-color="#9DC6DD" stop-opacity="0.51"/>
<stop offset="0.94" stop-color="#78B1D0" stop-opacity="0.7"/>
<stop offset="0.99" stop-color="#509AC2" stop-opacity="0.92"/>
<stop offset="1" stop-color="#4091BD"/>
</linearGradient>
<linearGradient id="paint2_linear_804_2243" x1="411.179" y1="1074.32" x2="409.866" y2="577.41" gradientUnits="userSpaceOnUse">
<stop offset="0.74" stop-color="white" stop-opacity="0"/>
<stop offset="0.76" stop-color="#FDFEFE" stop-opacity="0.02"/>
<stop offset="0.8" stop-color="#F8FBFC" stop-opacity="0.09"/>
<stop offset="0.84" stop-color="#F1F7FA" stop-opacity="0.21"/>
<stop offset="0.88" stop-color="#E7F1F6" stop-opacity="0.37"/>
<stop offset="0.92" stop-color="#DAE9F2" stop-opacity="0.57"/>
<stop offset="0.97" stop-color="#CAE0EC" stop-opacity="0.82"/>
<stop offset="1" stop-color="#BFDAE9"/>
</linearGradient>
</defs>
</svg>
